SplineFontDB: 3.2
FontName: honchokomono
FullName: honchokomono
FamilyName: honchokomono
Weight: Regular
Copyright: 
Version: 0.0.1
ItalicAngle: 0
UnderlinePosition: 0
UnderlineWidth: 0
Ascent: 750
Descent: 250
InvalidEm: 0
LayerCount: 2
Layer: 0 0 "Back" 1
Layer: 1 0 "Fore" 0
XUID: [1021 669 1385941162 13126094]
FSType: 0
OS2Version: 0
OS2_WeightWidthSlopeOnly: 0
OS2_UseTypoMetrics: 0
CreationTime: 1716743502
ModificationTime: 1717825190
PfmFamily: 17
TTFWeight: 400
TTFWidth: 5
LineGap: 90
VLineGap: 90
OS2TypoAscent: 750
OS2TypoAOffset: 0
OS2TypoDescent: -250
OS2TypoDOffset: 0
OS2TypoLinegap: 90
OS2WinAscent: 750
OS2WinAOffset: 0
OS2WinDescent: 250
OS2WinDOffset: 0
HheadAscent: 750
HheadAOffset: 0
HheadDescent: -250
HheadDOffset: 0
OS2CapHeight: 625
OS2XHeight: 375
OS2Vendor: 'PfEd'
MarkAttachClasses: 1
DEI: 91125
LangName: 1033
Encoding: Original
UnicodeInterp: none
NameList: AGL For New Fonts
DisplaySize: -48
AntiAlias: 1
FitToEm: 0
WinInfo: 0 19 6
BeginPrivate: 0
EndPrivate
TeXData: 1 0 0 419430 209715 139810 403702 1048576 139810 783286 444596 497025 792723 393216 433062 380633 303038 157286 324010 404750 52429 2506097 1059062 262144
BeginChars: 95 95

StartChar: exclam
Encoding: 1 33 1
Width: 400
VWidth: 774
Flags: HW
HStem: 1 134<154.887 245.568>
VStem: 136 128<20.2278 116.831> 157 71<198.378 453.255 457.314 472.538> 165 70<257.923 616.958>
LayerCount: 2
Fore
SplineSet
196 622 m 0x90
 221.802439108 622 227.512619286 610.579639645 232 550 c 0
 233.985739705 524.185383832 235 499.166963228 235 476 c 0x90
 235 378.386261454 228 328.613738546 228 231 c 0
 228 207.080749862 214.733381364 191 195 191 c 0
 174.991070717 191 157 213.725563011 157 239 c 0xa0
 157 268.5 165 426.5 165 456 c 0
 165 481.041007655 160 554.958992345 160 580 c 0
 160 608.2296375 171.803167857 622 196 622 c 0x90
200 135 m 0
 235.033854413 135 264 102.865682239 264 64 c 0
 264 29.1460366664 237.194250794 1 204 1 c 0
 167.231073612 1 136 31.7717931175 136 68 c 0xc0
 136 105.322701734 164.348464015 135 200 135 c 0
EndSplineSet
EndChar

StartChar: quotedbl
Encoding: 2 34 2
Width: 400
VWidth: 774
Flags: HW
HStem: 462 164<112.076 175.484 224.26 287.675>
VStem: 110 70<465.299 622.808> 221 71<462.887 623.173>
LayerCount: 2
Fore
SplineSet
254 627 m 0
 273.364981217 627 289.018365007 612.651064859 290 594 c 0
 292 536 292 536 292 495 c 0
 292 474.869830559 277.130169441 460 257 460 c 0
 239.67730516 460 225.945559446 471.30849647 223 488 c 0
 221.437087183 497.3774769 221 507.211938526 221 533 c 0
 221 555.5 220 569.5 220 592 c 0
 220 610.265383076 236.256485012 627 254 627 c 0
178 594 m 0
 179.53817018 576.311042925 180 563.379807977 180 538 c 0
 180 516.86335345 179.782838761 507.525420178 179 495 c 0
 178.018365007 476.348935141 162.364981217 462 143 462 c 0
 125.256485012 462 109 478.734616924 109 497 c 0
 109 508.693472195 110 521.306527805 110 533 c 0
 110 548.123505696 108 575.876494304 108 591 c 0
 108 611.563171623 122.436828377 626 143 626 c 0
 162.02822666 626 176.185087174 613.056584673 178 594 c 0
EndSplineSet
EndChar

StartChar: numbersign
Encoding: 3 35 3
Width: 400
VWidth: 774
Flags: W
HStem: -7 21G<66 88> 179 70<10.9689 67 150 214 297 377.031> 380 70<8.95015 101 183 247 329 390.857> 600 20G<155.5 177> 605 20G<303 325>
VStem: 44 70<-4.39822 165.5> 130 69<449.25 617.576> 193 69<-1.41697 171.279> 277 70<452.109 622.398>
LayerCount: 2
Fore
SplineSet
312 625 m 0xee80
 313 625 315 625 316 625 c 0
 334 623 347 608 347 590 c 0
 347 589 347 587 347 586 c 0
 342 540 336 495 329 450 c 1
 339 450 349 451 359 451 c 0
 378 451 394 435 394 416 c 0
 394 397 378 381 359 381 c 0
 345 381 332 380 318 380 c 1
 311 335 304 292 297 249 c 1
 312 249 328 249 344 249 c 0
 363 249 380 234 380 215 c 0
 380 196 365 179 346 179 c 0
 339 179 333 179 326 179 c 0
 312 179 298 179 285 179 c 1
 276 124 268 71 262 26 c 0
 259 9 245 -4 228 -4 c 0
 226 -4 225 -4 223 -4 c 0
 206 -1 193 13 193 30 c 0
 193 32 193 33 193 35 c 0xed80
 199 79 206 128 214 179 c 1
 188 179 163 179 138 179 c 1
 128 121 119 68 114 24 c 0
 112 6 97 -7 79 -7 c 0
 78 -7 76 -7 75 -7 c 0
 57 -5 44 10 44 28 c 0
 44 29 44 31 44 32 c 0
 49 75 58 125 67 179 c 1
 59 179 51 179 44 179 c 0
 25 179 8 194 8 213 c 0
 8 232 23 249 42 249 c 0
 55 249 67 250 79 250 c 1
 86 292 94 334 101 378 c 1
 81 378 61 379 39 380 c 0
 21 381 6 397 6 415 c 0
 6 416 6 416 6 417 c 0
 7 435 23 450 41 450 c 0
 42 450 42 450 43 450 c 0
 67 449 90 447 112 447 c 1
 119 495 125 543 130 589 c 0
 132 607 147 620 164 620 c 0
 165 620 167 620 168 620 c 0xf680
 186 618 199 603 199 586 c 0
 199 585 199 583 199 582 c 0
 195 538 190 492 183 447 c 1
 209 447 234 448 258 449 c 1
 265 497 272 546 277 594 c 0
 279 612 294 625 312 625 c 0xee80
247 378 m 1
 223 377 198 377 172 377 c 1
 165 333 157 290 150 249 c 1
 175 249 200 249 226 249 c 1
 233 291 240 333 247 378 c 1
EndSplineSet
Validated: 1
EndChar

StartChar: dollar
Encoding: 4 36 4
Width: 400
VWidth: 774
Flags: W
HStem: 79 70<192.5 269.962> 450 73<289.736 361.438> 487 71<130.094 195.5> 605 20G<239 262>
VStem: 48.5 69<403.548 472.54> 214.5 69<558 571.991 572.234 622.274> 301.5 69<177.699 252.413>
LayerCount: 2
Fore
SplineSet
214.5 588 m 0xbe
 218.5 609 228.5 625 249.5 625 c 0
 250.5 625 250.5 625 251.5 625 c 0
 272.5 624 283.5 608 283.5 585 c 0
 283.5 581 283.5 577 282.5 572 c 0
 282.5 572 280.5 559 278.5 548 c 1
 305.5 541 330.5 529 340.5 523 c 0
 358.5 512 366.5 496 366.5 483 c 0
 366.5 465 353.5 450 335.5 450 c 0xde
 328.5 450 320.5 452 312.5 458 c 0
 300.5 467 282.5 473 264.5 478 c 1
 256.5 437 248.5 396 239.5 357 c 1
 339.5 315 361.5 264 367.5 237 c 0
 369.5 229 370.5 220 370.5 212 c 0
 370.5 136 285.5 79 189.5 79 c 0
 185.5 79 180.5 79 176.5 79 c 1
 172.5 60 169.5 41 167.5 34 c 0
 161.5 8 147.5 -6 130.5 -6 c 0
 128.5 -6 125.5 -5 123.5 -5 c 0
 108.5 -2 97.5 11 97.5 33 c 0
 97.5 39 98.5 45 99.5 52 c 0
 100.5 56 104.5 74 108.5 93 c 1
 82.5 103 59.5 119 51.5 125 c 0
 35.5 138 29.5 153 29.5 166 c 0
 29.5 185 42.5 199 59.5 199 c 0
 67.5 199 77.5 196 85.5 187 c 0
 94.5 178 108.5 170 123.5 163 c 1
 134.5 212 146.5 263 158.5 314 c 1
 70.5 350 48.5 397 48.5 436 c 0
 48.5 470 65.5 498 70.5 506 c 0
 99.5 549 162.5 558 202.5 558 c 0
 204.5 558 206.5 558 208.5 558 c 1
 210.5 570 213.5 582 214.5 588 c 0xbe
195.5 487 m 1xbe
 153.5 486 135.5 471 131.5 467 c 0
 128.5 465 117.5 454 117.5 439 c 0
 117.5 424 128.5 404 173.5 384 c 1
 180.5 418 188.5 452 195.5 487 c 1xbe
223.5 287 m 1
 212.5 240 202.5 194 192.5 149 c 1
 243.5 150 301.5 176 301.5 216 c 0
 301.5 225 301.5 250 223.5 287 c 1
EndSplineSet
Validated: 1
EndChar

StartChar: percent
Encoding: 5 37 5
Width: 400
VWidth: 774
Flags: W
HStem: 48 257<253.947 344.698> 327 267<57.6206 139.752>
VStem: 18 70<407.185 521.016> 44 68<11.041 83.9381> 113 70<406.85 522.624> 218 70<124.5 234.39> 285 67<545.759 606.714> 312 70<122.995 234.312>
LayerCount: 2
Fore
SplineSet
285 589 m 0xda
 292 603 304 610 317 610 c 0
 322 610 327 609 331 607 c 0
 344 601 352 588 352 575 c 0
 352 570 351 566 349 561 c 0
 264 370 178 220 112 32 c 0
 107 18 94 8 79 8 c 0
 75 8 72 9 68 10 c 0
 54 15 44 29 44 44 c 0
 44 48 45 51 46 55 c 0
 114 249 202 402 285 589 c 0xda
108 594 m 0
 145 594 183 564 183 487 c 0
 183 478 182 468 181 457 c 0
 179 442 165 327 95 327 c 0
 50 327 18 376 18 454 c 0
 18 456 18 459 18 461 c 0xe8
 20 554 65 594 108 594 c 0
106 524 m 1
 102 522 89 499 88 460 c 0
 88 457 88 455 88 452 c 0xe8
 88 434 91 416 95 406 c 1
 105 424 110 450 112 464 c 0xd8
 113 470 113 477 113 483 c 0
 113 500 110 517 106 524 c 1
296 305 m 0
 341 305 382 260 382 174 c 0
 382 93 343 48 300 48 c 0
 299 48 l 0
 253 49 221 101 218 176 c 0
 218 180 218 184 218 188 c 0xcd
 218 268 255 305 296 305 c 0
297 235 m 1
 291 227 288 208 288 188 c 0
 288 185 288 182 288 179 c 0
 289 163 292 136 301 122 c 1
 311 141 312 165 312 176 c 0
 312 210 300 232 297 235 c 1
EndSplineSet
Validated: 1
EndChar

StartChar: ampersand
Encoding: 6 38 6
Width: 400
VWidth: 774
Flags: W
HStem: 14 70<94.9815 185.751> 522 71<158.828 208.707>
VStem: 15 70<94.6366 225.755> 75 70<424.641 506.955>
LayerCount: 2
Fore
SplineSet
204 593 m 0xd0
 237 593 281 570 281 523 c 0
 281 501 271 473 246 440 c 0
 224 411 198 377 173 340 c 1
 200 287 243 242 282 205 c 1
 285 210 288 214 291 219 c 0
 298 230 309 236 321 236 c 0
 327 236 334 234 340 231 c 0
 351 225 356 213 356 202 c 0
 356 196 355 189 351 183 c 0
 346 174 340 166 334 157 c 1
 347 145 360 134 373 122 c 0
 381 115 385 105 385 95 c 0
 385 87 382 79 376 73 c 0
 369 65 359 61 349 61 c 0
 341 61 332 64 326 70 c 0
 314 80 302 92 290 103 c 1
 258 69 200 17 137 14 c 0
 135 14 133 14 131 14 c 0
 70 14 15 67 15 145 c 0xe0
 15 151 15 156 16 162 c 0
 20 206 39 263 94 348 c 1
 82 380 75 415 75 452 c 0
 75 459 76 465 76 472 c 0
 80 544 143 593 204 593 c 0xd0
210 522 m 1
 155 520 145 485 145 453 c 0xd0
 145 442 146 433 147 424 c 1
 168 452 202 488 210 522 c 1
131 274 m 1
 112 241 90 194 86 155 c 0
 86 151 85 147 85 143 c 0xe0
 85 103 108 84 131 84 c 0
 132 84 132 84 133 84 c 0
 173 86 220 131 238 150 c 1
 192 193 157 233 131 274 c 1
EndSplineSet
Validated: 1
EndChar

StartChar: quotesingle
Encoding: 7 39 7
Width: 400
VWidth: 774
Flags: HW
HStem: 457 167<168.83 231.307>
VStem: 165 71<459.887 589.99>
LayerCount: 2
Fore
SplineSet
199 624 m 0
 217.045475939 624 233.00251138 608.954795156 234 591 c 0
 236 533 236 533 236 492 c 0
 236 471.869830559 221.130169441 457 201 457 c 0
 183.67730516 457 169.945559446 468.30849647 167 485 c 0
 165.42535625 494.447862498 165 504.231056256 165 531 c 0
 165 571.072985222 164 589.40991526 164 590 c 0
 164 608.607809774 179.844901703 624 199 624 c 0
EndSplineSet
EndChar

StartChar: parenleft
Encoding: 8 40 8
Width: 400
VWidth: 774
Flags: W
HStem: -8 68<238.473 319.819> 555 67<263.724 319.993>
VStem: 77 70<171.061 399.643>
LayerCount: 2
Fore
SplineSet
288 622 m 0
 302 622 315 613 320 600 c 0
 322 596 323 591 323 587 c 0
 323 573 315 560 301 555 c 0
 206 516 149 400 147 288 c 0
 147 286 147 283 147 281 c 0
 147 196 181 80 294 60 c 0
 311 57 322 43 322 26 c 0
 322 24 322 22 322 20 c 0
 319 3 305 -8 288 -8 c 0
 286 -8 284 -8 282 -8 c 0
 154 15 77 134 77 281 c 0
 77 284 77 286 77 289 c 0
 81 528 256 622 288 622 c 0
EndSplineSet
Validated: 1
EndChar

StartChar: parenright
Encoding: 9 41 9
Width: 400
VWidth: 774
Flags: W
HStem: 608 20G<143.5 152>
VStem: 241.5 71<203.371 439.051>
LayerCount: 2
Fore
SplineSet
120.5 615 m 0
 127.5 624 138.5 628 148.5 628 c 0
 155.5 628 163.5 626 169.5 621 c 0
 268.5 544 312.5 432 312.5 323 c 0
 312.5 311 311.5 298 310.5 286 c 0
 299.5 166 239.5 53 140.5 -7 c 0
 134.5 -10 128.5 -12 122.5 -12 c 0
 110.5 -12 99.5 -6 92.5 5 c 0
 89.5 11 87.5 17 87.5 23 c 0
 87.5 35 93.5 46 104.5 53 c 0
 179.5 99 231.5 192 240.5 292 c 0
 241.5 303 241.5 313 241.5 324 c 0
 241.5 414 207.5 502 126.5 565 c 0
 117.5 572 113.5 582 113.5 593 c 0
 113.5 601 115.5 609 120.5 615 c 0
EndSplineSet
Validated: 1
EndChar

StartChar: asterisk
Encoding: 10 42 10
Width: 400
VWidth: 774
Flags: W
VStem: 162 70<115.008 245 377 499.857>
LayerCount: 2
Fore
SplineSet
198 503 m 0
 217 503 232 487 232 468 c 0
 232 433 232 400 233 368 c 1
 254 382 275 398 293 420 c 0
 300 428 310 433 320 433 c 0
 328 433 335 430 342 424 c 0
 350 417 355 407 355 397 c 0
 355 389 352 382 346 375 c 0
 323 348 297 327 272 310 c 1
 296 292 320 271 343 244 c 0
 348 237 351 229 351 221 c 0
 351 211 346 201 338 194 c 0
 331 189 324 186 316 186 c 0
 306 186 296 191 289 199 c 0
 272 219 254 235 235 249 c 1
 235 217 233 183 231 145 c 0
 230 127 215 112 197 112 c 0
 196 112 196 112 195 112 c 0
 177 113 162 129 162 147 c 0
 162 148 164 169 164 245 c 1
 143 231 124 216 107 197 c 0
 100 189 90 184 80 184 c 0
 72 184 65 187 58 193 c 0
 50 200 45 210 45 220 c 0
 45 228 48 235 54 242 c 0
 79 271 107 292 136 310 c 1
 110 326 85 344 60 368 c 0
 53 375 49 384 49 393 c 0
 49 402 53 410 59 417 c 0
 66 424 75 428 84 428 c 0
 93 428 101 424 108 418 c 0
 124 403 143 389 163 377 c 1
 163 406 162 436 162 468 c 0
 162 487 179 503 198 503 c 0
EndSplineSet
Validated: 1
EndChar

StartChar: plus
Encoding: 11 43 11
Width: 400
VWidth: 774
Flags: W
HStem: 270 70<39.83 167 237 362.05>
VStem: 167 71<122.203 268 339 480.186>
LayerCount: 2
Fore
SplineSet
194 486 m 0
 195 486 196 486 197 486 c 0
 215 486 230 472 232 454 c 0
 236 413 237 376 237 339 c 1
 271 339 303 339 328 340 c 0
 329 340 329 340 330 340 c 0
 349 340 365 324 365 305 c 0
 365 287 350 271 332 270 c 0
 305 269 272 269 237 269 c 1
 237 174 238 154 238 153 c 0
 238 135 222 120 204 119 c 0
 203 119 203 119 202 119 c 0
 184 119 169 135 168 153 c 0
 167 194 167 231 167 268 c 1
 132 268 99 267 72 266 c 0
 71 266 71 266 70 266 c 0
 51 266 35 282 35 301 c 0
 35 319 50 335 68 336 c 0
 97 338 132 338 167 338 c 1
 167 394 162 447 162 451 c 0
 162 469 176 484 194 486 c 0
EndSplineSet
Validated: 1
EndChar

StartChar: comma
Encoding: 12 44 12
Width: 400
VWidth: 774
Flags: W
HStem: -134 256
VStem: 212 70<-24.0831 118.9>
LayerCount: 2
Fore
SplineSet
243 122 m 0
 244 122 245 122 246 122 c 0
 264 122 279 108 281 90 c 0
 282 81 282 71 282 62 c 0
 282 -27 238 -92 170 -130 c 0
 164 -133 158 -134 152 -134 c 0
 140 -134 128 -128 122 -117 c 0
 119 -112 118 -106 118 -100 c 0
 118 -87 124 -75 136 -69 c 0
 187 -41 212 -8 212 56 c 0
 212 69 211 87 211 87 c 0
 211 105 225 120 243 122 c 0
EndSplineSet
Validated: 1
EndChar

StartChar: hyphen
Encoding: 13 45 13
Width: 400
VWidth: 774
Flags: W
HStem: 274 70<66.7969 332.707>
VStem: 64 272<277.89 341.203>
LayerCount: 2
Fore
SplineSet
99 344 m 0
 104 344 110 344 115 344 c 0
 159 344 202 346 248 346 c 0
 266 346 284 346 303 345 c 0
 321 344 336 328 336 310 c 0
 336 291 320 275 301 275 c 0
 300 275 300 275 299 275 c 0
 283 276 268 276 252 276 c 0
 208 276 163 274 118 274 c 0
 112 274 105 274 99 274 c 0
 80 274 64 290 64 309 c 0
 64 328 80 344 99 344 c 0
EndSplineSet
Validated: 1
EndChar

StartChar: period
Encoding: 14 46 14
Width: 400
VWidth: 774
Flags: W
HStem: 2 134<154.616 245.362>
VStem: 136 128<21.2278 116.681>
LayerCount: 2
Fore
SplineSet
199 136 m 0
 233 136 264 105 264 65 c 0
 264 25 232 2 204 2 c 0
 166 2 136 34 136 69 c 0
 136 110 167 136 199 136 c 0
EndSplineSet
Validated: 1
EndChar

StartChar: slash
Encoding: 15 47 15
Width: 400
VWidth: 774
Flags: W
VStem: 46 68<13.0298 84.9381> 287 67<547.741 607.714>
LayerCount: 2
Fore
SplineSet
287 591 m 0
 293 605 307 611 319 611 c 0
 324 611 328 610 333 608 c 0
 346 602 354 589 354 576 c 0
 354 571 353 567 351 562 c 0
 266 371 180 221 114 33 c 0
 109 19 95 10 81 10 c 0
 77 10 74 11 70 12 c 0
 56 17 46 30 46 45 c 0
 46 49 47 52 48 56 c 0
 116 250 204 404 287 591 c 0
EndSplineSet
Validated: 1
EndChar

StartChar: zero
Encoding: 16 48 16
Width: 400
VWidth: 774
Flags: W
HStem: -9 70<151.621 248.889> 563 70<178.834 263.336>
VStem: 8 70<135.648 389.64> 322 70<173.152 452.924>
LayerCount: 2
Fore
SplineSet
224 633 m 0
 251 633 275 623 295 607 c 1
 295 608 296 609 296 610 c 0
 302 623 315 629 328 629 c 0
 333 629 338 628 343 626 c 0
 355 620 362 607 362 594 c 0
 362 589 361 584 359 579 c 0
 353 567 348 556 343 545 c 1
 356 520 392 438 392 299 c 0
 392 163 326 -9 206 -9 c 0
 177 -9 150 -2 125 11 c 1
 123 7 122 4 120 0 c 0
 114 -14 102 -22 88 -22 c 0
 83 -22 78 -21 74 -19 c 0
 60 -13 52 -1 52 13 c 0
 52 18 53 23 55 27 c 0
 59 37 64 46 68 56 c 1
 31 98 8 159 8 231 c 0
 8 414 85 633 224 633 c 0
224 563 m 0
 143 563 78 387 78 231 c 0
 78 195 85 162 99 135 c 1
 153 271 192 385 264 541 c 1
 252 555 239 563 224 563 c 0
302 456 m 1
 242 319 205 211 151 76 c 1
 167 66 186 61 206 61 c 0
 272 61 322 194 322 298 c 0
 322 334 319 392 302 456 c 1
EndSplineSet
Validated: 1
EndChar

StartChar: one
Encoding: 17 49 17
Width: 400
VWidth: 774
Flags: W
HStem: -10 73<38.0588 177 247 360.624> 606 20G<200.5 216.5>
VStem: 177 66<361.379 482> 182 70<62 477.735>
LayerCount: 2
Fore
SplineSet
205 626 m 0xe0
 206 626 206 626 207 626 c 0
 226 626 242 611 243 592 c 0xe0
 248 470 252 369 252 262 c 0xd0
 252 198 251 133 247 60 c 1
 273 60 299 61 327 65 c 0
 328 65 330 65 331 65 c 0
 349 65 366 52 366 31 c 0
 366 13 354 -2 336 -4 c 0
 303 -8 273 -10 244 -10 c 0
 204 -10 167 -7 130 -7 c 0
 111 -7 92 -8 72 -10 c 0
 71 -10 69 -10 68 -10 c 0
 49 -10 34 6 34 25 c 0
 34 43 47 58 65 60 c 0
 88 62 109 63 129 63 c 0
 145 63 161 62 177 62 c 1xe0
 181 131 182 194 182 255 c 0xd0
 182 331 180 403 177 482 c 1
 166 465 155 448 139 430 c 0
 132 422 123 418 113 418 c 0
 105 418 96 421 89 427 c 0
 81 434 77 444 77 453 c 0
 77 461 80 469 86 476 c 0
 120 515 134 557 181 613 c 0
 187 620 196 625 205 626 c 0xe0
EndSplineSet
Validated: 1
EndChar

StartChar: two
Encoding: 18 50 18
Width: 400
VWidth: 774
Flags: W
HStem: -2 71<128.262 373.621> 550 70<131.52 241.158>
VStem: 21 68<440.55 503.576> 255 70<376.633 537.171>
LayerCount: 2
Fore
SplineSet
197 620 m 0
 268 620 325 557 325 479 c 0
 325 405 294 322 260 269 c 0
 221 208 170 134 128 69 c 1
 143 69 156 70 170 70 c 0
 195 70 219 69 243 69 c 0
 274 69 306 70 340 73 c 0
 341 73 343 73 344 73 c 0
 362 73 376 60 378 42 c 0
 378 41 379 39 379 38 c 0
 379 20 365 5 347 3 c 0
 305 -1 267 -2 230 -2 c 0
 209 -2 187 -2 166 -2 c 0
 134 -2 102 -2 66 -5 c 0
 65 -5 65 -5 64 -5 c 0
 45 -5 29 11 29 30 c 0
 29 37 30 43 33 48 c 0
 80 127 151 229 201 307 c 0
 227 347 255 427 255 479 c 0
 255 526 230 550 197 550 c 0
 173 550 156 546 140 535 c 0
 124 524 105 503 89 460 c 0
 84 447 71 437 56 437 c 0
 52 437 48 439 44 440 c 0
 31 445 21 457 21 472 c 0
 21 476 23 481 24 485 c 0
 44 537 69 572 100 593 c 0
 131 614 166 620 197 620 c 0
EndSplineSet
Validated: 1
EndChar

StartChar: three
Encoding: 19 51 19
Width: 400
VWidth: 774
Flags: W
HStem: 9 71<60.9166 267.437> 28 69<33.3329 172.031> 315 70<145.1 227.378> 545 70<158.882 269.687>
VStem: 279 70<431.91 537.562> 300 70<110.525 261.035>
LayerCount: 2
Fore
SplineSet
231 615 m 0xb8
 298 615 349 563 349 484 c 0xb8
 349 421 308 379 278 356 c 1
 348 315 370 241 370 164 c 0
 370 59 285 26 246 17 c 0
 223 12 198 9 174 9 c 0xb4
 132 9 90 17 54 28 c 0
 40 33 30 46 30 61 c 0
 30 65 31 68 32 72 c 0
 37 87 51 97 66 97 c 0x74
 69 97 73 96 76 95 c 0
 106 86 143 80 178 80 c 0
 196 80 213 81 229 85 c 0
 299 102 300 147 300 165 c 0xb4
 300 263 261 306 174 315 c 0
 156 317 142 333 142 351 c 0
 142 369 157 384 175 385 c 0
 202 387 279 424 279 484 c 0
 279 503 274 545 231 545 c 0
 197 545 150 534 122 483 c 0
 116 471 104 465 91 465 c 0
 85 465 79 466 74 469 c 0
 62 475 56 487 56 500 c 0
 56 506 57 512 60 517 c 0
 102 595 180 615 231 615 c 0xb8
EndSplineSet
Validated: 1
EndChar

StartChar: four
Encoding: 20 52 20
Width: 400
VWidth: 774
Flags: W
HStem: 311 73<105 260.767> 332 69<338 365.467> 606 20G<308.5 329>
VStem: 264 70<96.5083 320>
LayerCount: 2
Fore
SplineSet
282 595 m 0xb0
 284 615 301 626 316 626 c 0
 317 626 319 626 320 626 c 0
 338 624 351 609 351 591 c 0
 351 589 346 553 338 401 c 1
 352 399 364 388 367 374 c 0
 368 372 368 369 368 367 c 0
 368 351 357 335 340 332 c 0x70
 338 332 336 331 334 331 c 0
 330 232 327 134 316 28 c 0
 314 10 299 -4 281 -4 c 0
 280 -4 279 -4 278 -4 c 0
 260 -2 247 13 247 30 c 0
 247 33 252 37 264 320 c 1
 195 314 128 317 71 311 c 0
 70 311 69 311 68 311 c 0
 49 311 32 326 32 345 c 0
 32 398 36 418 69 567 c 0
 72 584 88 595 104 595 c 0
 106 595 109 595 111 594 c 0
 128 591 139 576 139 560 c 0
 139 558 139 555 138 553 c 0
 117 457 109 425 105 384 c 1
 160 387 214 386 267 391 c 1
 270 456 274 524 282 595 c 0xb0
EndSplineSet
Validated: 1
EndChar

StartChar: five
Encoding: 21 53 21
Width: 400
VWidth: 774
Flags: W
HStem: -9 69<77.3495 225.538> 354 70<114.169 244.981> 544 69<121 319.135> 557 70<124.958 377.047>
VStem: 52 69<414.221 544> 301 70<135.199 294.57>
LayerCount: 2
Fore
SplineSet
342 627 m 0xdc
 343 627 343 627 344 627 c 0
 363 627 380 612 380 592 c 0
 380 574 365 558 347 557 c 0xdc
 318 555 205 547 121 544 c 1
 120 506 117 458 113 411 c 1
 138 419 159 424 179 424 c 0
 181 424 182 424 184 424 c 0
 279 422 371 340 371 202 c 0
 371 129 328 63 265 24 c 0
 232 3 192 -9 151 -9 c 0
 114 -9 74 1 37 24 c 0
 26 31 20 42 20 54 c 0
 20 60 22 67 25 73 c 0
 31 84 43 89 54 89 c 0
 60 89 67 88 73 84 c 0
 101 67 127 60 152 60 c 0
 180 60 205 69 228 83 c 0
 271 110 301 158 301 202 c 0
 301 311 241 352 182 354 c 0
 168 354 135 347 86 325 c 0
 81 323 77 322 72 322 c 0
 53 322 37 338 37 358 c 0
 37 373 44 387 52 579 c 0
 53 598 67 613 86 613 c 0xec
 166 614 309 625 342 627 c 0xdc
EndSplineSet
Validated: 1
EndChar

StartChar: six
Encoding: 22 54 22
Width: 400
VWidth: 774
Flags: W
HStem: 1 70<151.818 263.425> 315 70<156.927 263.408>
VStem: 300 70<109.335 191>
LayerCount: 2
Fore
SplineSet
223 615 m 0
 230 620 238 623 246 623 c 0
 256 623 266 618 273 610 c 0
 278 604 280 596 280 589 c 0
 280 579 276 568 267 561 c 0
 199 506 123 453 104 341 c 1
 130 365 166 385 211 385 c 0
 309 385 370 294 370 191 c 0
 370 85 308 1 205 1 c 0
 44 1 30 212 30 285 c 0
 30 465 147 553 223 615 c 0
211 315 m 0
 182 315 149 302 103 227 c 1
 111 149 136 71 205 71 c 0
 294 71 300 166 300 191 c 0
 300 191 300 315 211 315 c 0
EndSplineSet
Validated: 1
EndChar

StartChar: seven
Encoding: 23 55 23
Width: 400
VWidth: 774
Flags: W
HStem: 544 69<27.1687 285.7> 549 71<136.438 288>
LayerCount: 2
Fore
SplineSet
342 620 m 0x40
 362 620 377 603 377 585 c 0
 377 580 376 576 374 571 c 0
 338 488 207 167 173 23 c 0
 170 7 155 -4 139 -4 c 0
 136 -4 134 -4 131 -3 c 0
 115 0 104 16 104 32 c 0
 104 35 104 37 105 40 c 0
 137 177 236 426 288 549 c 1x40
 239 547 186 544 134 544 c 0
 107 544 80 545 55 547 c 0
 37 549 23 564 23 582 c 0
 23 601 38 616 57 616 c 0
 58 616 60 616 61 616 c 0
 81 614 104 613 127 613 c 0x80
 197 613 276 620 342 620 c 0x40
EndSplineSet
Validated: 1
EndChar

StartChar: eight
Encoding: 24 56 24
Width: 400
VWidth: 774
Flags: W
HStem: -5 70<107.627 227.577> 547 70<127.193 247.458>
VStem: 32 70<72.0025 202.451 428.496 524.456> 278 70<111.937 222.787>
LayerCount: 2
Fore
SplineSet
174 617 m 0
 175 617 177 617 178 617 c 0
 218 617 261 603 302 572 c 0
 304 574 306 577 308 579 c 0
 315 586 324 590 333 590 c 0
 342 590 350 586 357 580 c 0
 364 573 368 563 368 554 c 0
 368 546 365 538 359 531 c 0
 299 466 251 407 213 354 c 1
 280 307 347 254 348 165 c 0
 348 68 253 -5 157 -5 c 0
 93 -5 32 30 32 115 c 0
 32 133 34 153 40 175 c 0
 52 222 77 276 116 338 c 1
 78 369 34 414 34 480 c 0
 34 557 100 615 174 617 c 0
184 547 m 0
 183 547 183 547 182 547 c 0
 138 547 104 516 104 480 c 0
 104 450 119 426 156 396 c 1
 184 434 217 476 255 520 c 1
 229 539 205 546 184 547 c 0
173 296 m 1
 138 240 117 194 108 158 c 0
 104 142 102 127 102 114 c 0
 102 85 114 65 157 65 c 0
 209 65 278 104 278 165 c 0
 278 215 241 248 173 296 c 1
EndSplineSet
Validated: 1
EndChar

StartChar: nine
Encoding: 25 57 25
Width: 400
VWidth: 774
Flags: W
HStem: -8 21G<191.5 213.5> 306 70<125.154 225.168> 561 70<130.734 266.315>
VStem: 37.5 70<393.319 536.819>
LayerCount: 2
Fore
SplineSet
194.5 631 m 0
 243.5 630 294.5 610 340.5 574 c 0
 349.5 567 362.5 549 362.5 537 c 0
 362.5 501 262.5 204 239.5 23 c 0
 237.5 5 222.5 -8 204.5 -8 c 0
 203.5 -8 201.5 -8 200.5 -8 c 0
 182.5 -6 170.5 9 170.5 27 c 0
 170.5 81 232.5 314 233.5 317 c 1
 218.5 310 200.5 306 182.5 306 c 0
 53.5 306 37.5 414 37.5 469 c 0
 37.5 567 103.5 631 192.5 631 c 0
 193.5 631 193.5 631 194.5 631 c 0
193.5 561 m 0
 192.5 561 190.5 561 189.5 561 c 0
 151.5 561 107.5 545 107.5 469 c 0
 107.5 378 153.5 376 182.5 376 c 0
 218.5 376 246.5 420 262.5 454 c 0
 275.5 482 283.5 509 288.5 526 c 1
 255.5 549 222.5 560 193.5 561 c 0
EndSplineSet
Validated: 1
EndChar

StartChar: colon
Encoding: 26 58 26
Width: 400
VWidth: 774
Flags: W
HStem: 2 134<156.41 246.568> 430 134<153.41 243.568>
VStem: 138 127<20.574 117.831 447.522 542.29>
LayerCount: 2
Fore
SplineSet
198 564 m 0
 232 564 262 533 262 493 c 0
 262 453 230 430 202 430 c 0
 164 430 135 462 135 497 c 0
 135 538 166 564 198 564 c 0
201 136 m 0
 235 136 265 105 265 65 c 0
 265 25 233 2 205 2 c 0
 167 2 138 34 138 69 c 0
 138 110 169 136 201 136 c 0
EndSplineSet
Validated: 1
EndChar

StartChar: semicolon
Encoding: 27 59 27
Width: 400
VWidth: 774
Flags: W
HStem: 429 134<183.41 273.568>
VStem: 165 127<447.574 544.831> 202 70<-8.08312 134.9>
LayerCount: 2
Fore
SplineSet
228 563 m 0xc0
 262 563 292 532 292 492 c 0
 292 452 260 429 232 429 c 0
 194 429 165 461 165 496 c 0
 165 537 196 563 228 563 c 0xc0
236 138 m 0
 254 138 269 124 271 106 c 0
 272 97 272 87 272 78 c 0
 272 -11 228 -76 160 -114 c 0
 154 -117 148 -118 142 -118 c 0
 130 -118 118 -112 112 -101 c 0
 109 -96 108 -90 108 -84 c 0
 108 -71 114 -59 126 -53 c 0
 177 -25 202 8 202 72 c 0xa0
 202 85 201 103 201 103 c 0
 201 121 215 136 233 138 c 0
 234 138 235 138 236 138 c 0
EndSplineSet
Validated: 1
EndChar

StartChar: less
Encoding: 28 60 28
Width: 400
VWidth: 774
Flags: W
HStem: 112 69<277.018 343.413>
VStem: 50 300
LayerCount: 2
Fore
SplineSet
310 500 m 0
 312 501 315 501 317 501 c 0
 328 501 339 493 345 483 c 0
 348 477 350 471 350 465 c 0
 350 453 343 442 332 435 c 0
 273 401 218 359 142 306 c 1
 197 260 252 209 318 181 c 0
 334 174 347 161 347 145 c 0
 347 143 347 142 347 140 c 0
 344 123 329 112 312 112 c 0
 310 112 308 112 306 112 c 0
 241 123 66 279 62 283 c 0
 54 290 50 300 50 310 c 0
 50 321 55 331 65 338 c 0
 142 391 224 465 310 500 c 0
EndSplineSet
Validated: 1
EndChar

StartChar: equal
Encoding: 29 61 29
Width: 400
VWidth: 774
Flags: W
HStem: 202 72<43.1687 358.11> 345 70<40.9689 346.709>
VStem: 38 324
LayerCount: 2
Fore
SplineSet
316 418 m 0
 335 418 351 402 351 383 c 0
 351 364 335 348 316 348 c 0
 259 347 201 345 139 345 c 0
 117 345 95 345 71 346 c 0
 53 347 38 362 38 380 c 0
 38 399 53 416 72 416 c 0
 73 416 73 416 74 416 c 0
 96 415 118 415 140 415 c 0
 200 415 257 417 316 418 c 0
71 271 m 0
 100 273 128 274 155 274 c 0
 195 274 232 272 268 272 c 0
 287 272 306 273 325 274 c 0
 326 274 326 274 327 274 c 0
 346 274 362 258 362 239 c 0
 362 221 347 205 329 204 c 0
 309 203 289 202 269 202 c 0
 228 202 188 204 146 204 c 0
 123 204 100 204 76 202 c 0
 75 202 75 202 74 202 c 0
 56 202 39 216 39 236 c 0
 39 254 53 270 71 271 c 0
EndSplineSet
Validated: 1
EndChar

StartChar: greater
Encoding: 30 62 30
Width: 400
VWidth: 774
Flags: W
VStem: 43 314
LayerCount: 2
Fore
SplineSet
62 496 m 0
 68 503 77 506 86 506 c 0
 95 506 104 503 111 496 c 0
 154 454 299 368 338 348 c 0
 350 342 357 329 357 317 c 0
 357 306 352 296 342 289 c 0
 259 229 196 190 100 113 c 0
 94 108 86 106 79 106 c 0
 69 106 58 110 51 119 c 0
 46 126 43 133 43 141 c 0
 43 151 48 161 56 168 c 0
 136 232 194 270 256 313 c 1
 195 347 108 401 62 446 c 0
 55 453 51 462 51 471 c 0
 51 480 55 489 62 496 c 0
EndSplineSet
Validated: 1
EndChar

StartChar: question
Encoding: 31 63 31
Width: 400
VWidth: 774
Flags: W
HStem: 1 134<144.41 234.568> 565 70<143.9 268.069>
VStem: 24 69<435.778 512.889> 126 127<19.574 116.831> 155 70<183.678 298.198> 306 70<421.485 526.502>
LayerCount: 2
Fore
SplineSet
202 635 m 0xec
 304 635 376 554 376 465 c 0
 376 363 264 335 234 282 c 0
 229 272 225 262 225 248 c 0
 225 241 226 232 228 222 c 0
 229 219 229 217 229 214 c 0
 229 198 218 183 202 180 c 0
 199 179 197 179 194 179 c 0
 178 179 163 190 160 206 c 0
 157 220 155 232 155 245 c 0
 155 272 162 296 173 316 c 0
 215 390 306 405 306 465 c 0
 306 518 268 565 202 565 c 0
 156 565 106 526 93 461 c 0
 90 444 75 433 59 433 c 0
 57 433 54 433 52 434 c 0
 35 437 24 452 24 468 c 0
 24 470 24 473 25 475 c 0
 43 569 118 635 202 635 c 0xec
189 135 m 0
 223 135 253 104 253 64 c 0
 253 24 221 1 193 1 c 0
 155 1 126 33 126 68 c 0xf4
 126 109 157 135 189 135 c 0
EndSplineSet
Validated: 1
EndChar

StartChar: at
Encoding: 32 64 32
Width: 400
VWidth: 774
Flags: W
HStem: 1 69<124.533 219.82> 566 70<193.918 277.683>
VStem: 12 70<128.731 401.181> 115 71<261.33 359.44> 217 70<277.95 371> 318 70<279.075 508.559>
LayerCount: 2
Fore
SplineSet
245 636 m 0
 340 636 388 507 388 388 c 0
 388 328 367 193 298 193 c 0
 270 193 253 212 247 220 c 1
 237 205 223 193 205 185 c 0
 199 182 193 181 186 181 c 0
 151 181 115 218 115 281 c 0
 115 286 115 292 116 298 c 0
 124 385 169 435 210 445 c 0
 216 446 221 447 226 447 c 0
 269 447 286 402 287 388 c 0
 289 334 292 297 297 277 c 1
 310 306 318 352 318 388 c 0
 318 472 286 566 245 566 c 0
 177 566 82 436 82 257 c 0
 82 160 112 75 159 70 c 0
 160 70 162 70 163 70 c 0
 175 70 191 74 212 88 c 0
 218 92 225 94 231 94 c 0
 242 94 253 88 260 78 c 0
 264 72 266 65 266 59 c 0
 266 48 260 37 250 30 c 0
 221 11 191 1 162 1 c 0
 158 1 155 1 152 1 c 0
 88 7 12 73 12 257 c 0
 12 458 120 636 245 636 c 0
217 371 m 1
 192 348 187 297 186 291 c 0
 185 277 186 268 188 261 c 1
 193 269 199 280 204 295 c 0
 211 317 216 345 217 371 c 1
EndSplineSet
Validated: 1
EndChar

StartChar: A
Encoding: 33 65 33
Width: 400
VWidth: 774
Flags: W
HStem: 209 70<147 261>
VStem: 10 69<0.989697 115.127>
LayerCount: 2
Fore
SplineSet
209 617 m 0
 220 617 233 611 240 597 c 0
 297 476 353 172 389 49 c 0
 390 46 390 42 390 39 c 0
 390 23 381 9 365 5 c 0
 362 4 358 4 355 4 c 0
 340 4 326 13 322 29 c 0
 309 73 294 139 277 210 c 1
 259 209 239 209 219 209 c 0
 186 209 153 210 126 211 c 1
 105 138 87 71 79 27 c 0
 76 10 60 -2 43 -2 c 0
 41 -2 40 -2 38 -2 c 0
 21 1 10 16 10 33 c 0
 10 35 10 37 10 39 c 0
 36 178 136 486 176 594 c 0
 181 608 194 617 209 617 c 0
209 477 m 1
 190 420 168 350 147 280 c 1
 165 280 184 279 204 279 c 0
 224 279 243 280 261 280 c 1
 245 347 228 416 209 477 c 1
EndSplineSet
Validated: 1
EndChar

StartChar: B
Encoding: 34 66 34
Width: 400
VWidth: 774
Flags: W
HStem: 4.39746 69.6025<109.411 219.866> 296 70<116 168.492> 570 69<112.791 214.485>
VStem: 46 70<76.8572 299.396 366 566.862> 247 69<428.471 536.242> 294 70<136.016 272.824>
LayerCount: 2
Fore
SplineSet
81 621 m 0xf4
 106 629 120 639 162 639 c 0
 204 639 272 605 301 545 c 0
 310 526 316 504 316 481 c 0xf8
 316 442 300 400 258 363 c 1
 316 343 360 292 364 213 c 0
 364 210 364 208 364 205 c 0
 364 62.4775390625 210.5625 4.3974609375 113.576171875 4.3974609375 c 0
 68.76171875 4.3974609375 36 16.798828125 36 39 c 0
 36 41 46 118 46 250 c 0
 46 337 42 424 42 520 c 0
 42 542 43 564 43 587 c 0
 43 611 66 616 81 621 c 0xf4
238 515 m 0
 218 557 189 570 162 570 c 0
 144 570 126 564 112 558 c 1
 112 549 112 539 112 530 c 0
 112 473 114 419 115 366 c 1
 148 376 247 413 247 480 c 0
 247 491 244 502 238 515 c 0
294 210 m 0xf4
 291 286 242 303 189 303 c 0
 164 303 138 300 116 296 c 1
 116 281 116 266 116 251 c 0
 116 193 115 135 109 74 c 1
 154 74 294 84 294 203 c 0
 294 205 294 207 294 210 c 0xf4
EndSplineSet
Validated: 1
EndChar

StartChar: C
Encoding: 35 67 35
Width: 400
VWidth: 774
Flags: W
HStem: 2 70<144.745 255.11> 559 70<201.212 298.039>
VStem: 17 70<144.982 390.516> 316 67<144.755 206.714>
LayerCount: 2
Fore
SplineSet
250 629 m 0
 274 629 323 621 358 574 c 0
 363 567 365 560 365 552 c 0
 365 541 360 531 351 525 c 0
 345 521 337 518 330 518 c 0
 319 518 309 523 302 533 c 0
 284 557 271 559 256 559 c 0
 254 559 252 559 250 559 c 0
 169 559 87 389 87 271 c 0
 87 231 94 72 202 72 c 0
 268 72 305 162 316 188 c 0
 322 202 334 210 348 210 c 0
 353 210 358 209 362 207 c 0
 375 201 383 188 383 175 c 0
 383 170 382 166 380 161 c 0
 375 149 326 2 202 2 c 0
 144 2 17 41 17 271 c 0
 17 405 108 629 250 629 c 0
EndSplineSet
Validated: 1
EndChar

StartChar: D
Encoding: 36 68 36
Width: 400
VWidth: 774
Flags: W
HStem: 561 70<129.845 239.089>
VStem: 38 70<74 267.15> 292 70<203.629 494.088>
LayerCount: 2
Fore
SplineSet
82 608 m 0
 97 614 139 631 185 631 c 0
 191 631 198 631 204 630 c 0
 339 616 362 461 362 352 c 0
 362 233 330 4 88 4 c 0
 82 4 77 4 71 4 c 0
 52 5 38 20 38 39 c 0
 40 230 50 413 60 578 c 0
 61 591 70 603 82 608 c 0
196 561 m 0
 193 561 189 561 186 561 c 0
 167 561 147 557 129 551 c 1
 120 403 111 242 108 74 c 1
 205 81 292 145 292 352 c 0
 292 428 279 552 196 561 c 0
EndSplineSet
Validated: 1
EndChar

StartChar: E
Encoding: 37 69 37
Width: 400
VWidth: 774
Flags: W
HStem: -4 71<115 327.859> 289 70<110 250.906> 551 69<129.055 314.691>
VStem: 37 71<172.954 289 359 553.798> 45 70<67 284.061>
LayerCount: 2
Fore
SplineSet
311 626 m 0xf0
 327 626 341 615 344 598 c 0
 344 596 344 594 344 592 c 0
 344 575 333 560 316 557 c 0
 288 552 265 551 244 551 c 0
 204 551 170 556 130 556 c 0
 124 556 119 556 113 556 c 1
 109 509 108 463 108 416 c 0
 108 397 108 378 108 359 c 1xf0
 113 359 118 359 122 359 c 0
 144 359 165 361 191 361 c 0
 200 361 211 361 222 360 c 0
 240 359 254 342 254 324 c 0
 254 304 236 290 218 290 c 0
 217 290 217 290 216 290 c 0
 208 291 200 291 193 291 c 0
 171 291 151 289 127 289 c 0
 122 289 116 289 110 289 c 1
 112 224 115 159 115 92 c 0
 115 84 115 75 115 67 c 1
 132 68 147 69 161 69 c 0
 192 69 218 67 243 67 c 0
 268 67 293 69 318 76 c 0
 321 77 325 77 328 77 c 0
 344 77 358 68 362 52 c 0
 363 49 363 45 363 42 c 0
 363 27 354 13 338 9 c 0
 301 -2 268 -4 236 -4 c 0
 208 -4 180 -2 150 -2 c 0
 129 -2 107 -3 83 -6 c 0
 81 -6 80 -6 78 -6 c 0
 60 -6 44 8 44 27 c 0
 44 28 45 50 45 82 c 0xe8
 45 190 37 297 37 406 c 0
 37 467 40 529 47 593 c 0
 49 609 62 622 78 624 c 0
 96 626 112 627 127 627 c 0
 171 627 204 620 242 620 c 0
 261 620 280 622 304 626 c 0
 306 626 309 626 311 626 c 0xf0
EndSplineSet
Validated: 1
EndChar

StartChar: F
Encoding: 38 70 38
Width: 400
VWidth: 774
Flags: W
HStem: 291 71<119.5 260.027> 559 70<121.553 350.94>
VStem: 46.5 71<170.733 291 362 556.239> 54.5 70<-0.796875 286.377>
LayerCount: 2
Fore
SplineSet
87.5 626 m 0xe0
 106.5 628 123.5 629 138.5 629 c 0
 181.5 629 212.5 623 249.5 623 c 0
 268.5 623 289.5 625 313.5 629 c 0
 315.5 629 316.5 629 318.5 629 c 0
 335.5 629 350.5 617 353.5 600 c 0
 353.5 598 353.5 596 353.5 594 c 0
 353.5 577 342.5 563 325.5 560 c 0
 297.5 555 274.5 554 253.5 554 c 0
 213.5 554 179.5 559 139.5 559 c 0
 133.5 559 128.5 559 122.5 559 c 1
 118.5 512 117.5 466 117.5 419 c 0
 117.5 400 117.5 381 117.5 362 c 1xe0
 122.5 362 128.5 362 133.5 362 c 0
 153.5 362 172.5 363 196.5 363 c 0
 207.5 363 218.5 363 231.5 362 c 0
 249.5 361 263.5 345 263.5 327 c 0
 263.5 307 245.5 293 227.5 293 c 0
 226.5 293 226.5 293 225.5 293 c 0
 218.5 294 211.5 294 205.5 294 c 0
 181.5 294 160.5 291 134.5 291 c 0
 129.5 291 124.5 291 119.5 291 c 1
 121.5 225 124.5 158 124.5 90 c 0
 124.5 70 123.5 50 123.5 30 c 0
 122.5 12 107.5 -4 89.5 -4 c 0
 88.5 -4 88.5 -4 87.5 -4 c 0
 69.5 -3 53.5 12 53.5 30 c 0
 53.5 31 54.5 53 54.5 85 c 0xd0
 54.5 193 46.5 299 46.5 408 c 0
 46.5 469 49.5 531 56.5 595 c 0
 58.5 611 71.5 624 87.5 626 c 0xe0
EndSplineSet
Validated: 1
EndChar

StartChar: G
Encoding: 39 71 39
Width: 400
VWidth: 774
Flags: W
HStem: -2 70<151.745 255.27> 271 70<166.969 305.807> 555 70<208.212 304.635>
VStem: 24 70<140.982 386.516> 306 70<132.465 275.172>
LayerCount: 2
Fore
SplineSet
257 625 m 0
 281 625 330 617 365 570 c 0
 370 563 372 556 372 548 c 0
 372 537 367 527 358 521 c 0
 351 516 344 514 336 514 c 0
 325 514 315 519 309 528 c 0
 290 554 276 555 260 555 c 0
 259 555 258 555 257 555 c 0
 176 555 94 385 94 267 c 0
 94 227 101 68 209 68 c 0
 238 68 266 91 286 136 c 0
 299 165 306 202 306 240 c 0
 306 252 305 264 304 276 c 1
 276 274 256 271 223 271 c 0
 215 271 207 272 197 272 c 0
 179 273 164 288 164 306 c 0
 164 325 179 341 198 341 c 0
 199 341 199 341 200 341 c 0
 207 341 214 341 220 341 c 0
 262 341 279 346 333 347 c 0
 350 347 364 336 368 320 c 0
 374 294 376 268 376 242 c 0
 376 194 367 148 350 108 c 0
 324 47 274 -2 209 -2 c 0
 151 -2 24 37 24 267 c 0
 24 401 115 625 257 625 c 0
EndSplineSet
Validated: 1
EndChar

StartChar: H
Encoding: 40 72 40
Width: 400
VWidth: 774
Flags: W
HStem: 278 72<103 256.705> 286 71<126.203 295> 599 20G<326.5 345.5> 606 20G<66 86>
VStem: 29 73<-1.54364 264.811> 41 70<360.031 623.05> 295 70<-9.04985 285.998 355 375.123>
LayerCount: 2
Fore
SplineSet
77 626 m 0x96
 95 625 111 610 111 592 c 0
 111 590 104 467 103 350 c 1
 109 350 115 350 121 350 c 0x96
 164 350 210 357 259 357 c 0
 271 357 284 356 297 355 c 1
 299 427 301 501 301 584 c 0
 301 603 317 619 336 619 c 0
 355 619 371 603 371 584 c 0
 371 417 363 287 363 144 c 0
 363 72 365 25 365 22 c 0
 365 4 349 -11 331 -12 c 0
 330 -12 330 -12 329 -12 c 0
 311 -12 296 3 295 21 c 0
 294 63 293 104 293 144 c 0
 293 192 294 238 295 285 c 1
 287 286 279 286 270 286 c 0x66
 226 286 178 278 127 278 c 0
 119 278 110 279 102 279 c 1
 101 197 101 114 99 28 c 0
 99 9 82 -6 63 -6 c 0
 44 -6 29 10 29 29 c 0x8a
 33 220 32 394 41 593 c 0
 42 611 57 626 75 626 c 0
 76 626 76 626 77 626 c 0x96
EndSplineSet
Validated: 1
EndChar

StartChar: I
Encoding: 41 73 41
Width: 400
VWidth: 774
Flags: W
HStem: -6 69<32.1243 162.884 236.408 365.417> 550 70<40.3173 169 239 275.382 278.891 367.204>
VStem: 160 70<72.2251 441.109> 169 70<71 203.029 302.653 550>
LayerCount: 2
Fore
SplineSet
75 620 m 0xd0
 92 619 107 618 122 618 c 0
 176 618 222 625 278 625 c 0
 297 625 317 624 339 622 c 0
 357 620 371 605 371 587 c 0
 371 568 355 552 336 552 c 0
 335 552 334 552 333 552 c 0
 315 554 300 554 284 554 c 0
 268 554 253 553 239 553 c 1
 239 548 239 544 239 539 c 0xd0
 239 418 230 317 230 205 c 0
 230 163 232 118 235 71 c 1
 265 71 298 69 338 63 c 0
 355 60 368 46 368 29 c 0
 368 27 368 26 368 24 c 0
 365 7 350 -6 333 -6 c 0
 331 -6 330 -6 328 -6 c 0
 292 0 262 1 235 1 c 0
 183 1 138 -5 65 -8 c 0
 64 -8 64 -8 63 -8 c 0
 44 -8 29 9 29 28 c 0
 29 46 45 61 63 62 c 0
 102 63 134 67 165 69 c 1
 162 117 160 163 160 206 c 0xe0
 160 320 169 420 169 536 c 0
 169 540 169 545 169 550 c 1
 151 549 131 548 111 548 c 0
 98 548 85 549 70 550 c 0
 52 551 37 568 37 586 c 0
 37 606 54 620 73 620 c 0
 74 620 74 620 75 620 c 0xd0
EndSplineSet
Validated: 1
EndChar

StartChar: J
Encoding: 42 74 42
Width: 400
VWidth: 774
Flags: W
HStem: -1 70<138.125 237.761>
VStem: 39 69<98.7363 222.413> 291 70<152.61 543.284>
LayerCount: 2
Fore
SplineSet
289 622 m 0
 292 623 295 623 298 623 c 0
 313 623 328 614 332 597 c 0
 359 493 361 384 361 308 c 0
 361 145 308 -1 199 -1 c 0
 115 -1 39 60 39 164 c 0
 39 174 39 185 41 196 c 0
 44 213 59 226 76 226 c 0
 78 226 79 226 81 226 c 0
 98 223 110 208 110 191 c 0
 110 189 110 188 110 186 c 0
 109 177 108 169 108 162 c 0
 108 85 171 69 199 69 c 0
 258 69 291 193 291 308 c 0
 291 383 288 485 264 579 c 0
 263 582 263 585 263 588 c 0
 263 604 273 618 289 622 c 0
EndSplineSet
Validated: 1
EndChar

StartChar: K
Encoding: 43 75 43
Width: 400
VWidth: 774
Flags: W
HStem: 614 20G<98.5 118.5>
VStem: 60.5 70<2.95015 270.529> 72.5 70<393.479 631.05> 269.5 70<2.79688 207.136>
LayerCount: 2
Fore
SplineSet
109.5 634 m 0xb0
 127.5 633 142.5 618 142.5 600 c 0xb0
 142.5 598 140.5 565 137.5 387 c 1
 186.5 458 221.5 531 265.5 616 c 0
 271.5 628 284.5 635 296.5 635 c 0
 302.5 635 307.5 633 312.5 631 c 0
 324.5 625 332.5 612 332.5 599 c 0
 332.5 594 331.5 589 328.5 584 c 0
 287.5 504 251.5 431 202.5 358 c 1
 319.5 320 339.5 160 339.5 51 c 0
 339.5 45 339.5 39 339.5 34 c 0
 339.5 15 323.5 0 304.5 0 c 0
 285.5 0 269.5 16 269.5 35 c 0
 269.5 40 269.5 45 269.5 50 c 0
 269.5 242 205.5 295 158.5 295 c 0
 150.5 295 142.5 294 136.5 291 c 1
 135.5 207 134.5 122 130.5 33 c 0
 129.5 15 114.5 0 96.5 0 c 0
 95.5 0 95.5 0 94.5 0 c 0
 76.5 1 60.5 16 60.5 34 c 0xd0
 60.5 338 60.5 339 72.5 601 c 0
 73.5 619 89.5 634 107.5 634 c 0
 108.5 634 108.5 634 109.5 634 c 0xb0
EndSplineSet
Validated: 1
EndChar

StartChar: L
Encoding: 44 76 44
Width: 400
VWidth: 774
Flags: W
HStem: 6 70<113.076 359.876> 605 20G<70.5 97>
VStem: 37 70<67.7502 461.707> 47 69<352.772 621.609>
LayerCount: 2
Fore
SplineSet
82 625 m 0xd0
 83 625 84 625 85 625 c 0
 109 625 116 606 116 579 c 0xd0
 116 573 116 566 115 559 c 0
 110 501 107 368 107 247 c 0
 107 177 108 111 110 66 c 1
 176 70 218 76 285 76 c 0
 298 76 313 75 329 75 c 0
 347 74 363 59 363 41 c 0
 363 22 348 5 329 5 c 0
 328 5 328 5 327 5 c 0
 314 5 302 6 291 6 c 0
 214 6 171 -3 78 -6 c 0
 77 -6 77 -6 76 -6 c 0
 59 -6 44 8 42 25 c 0
 38 56 37 127 37 208 c 0xe0
 37 357 42 542 47 584 c 0
 49 604 59 624 82 625 c 0xd0
EndSplineSet
Validated: 1
EndChar

StartChar: M
Encoding: 45 77 45
Width: 400
VWidth: 774
Flags: W
HStem: 612 20G<79 86.5>
VStem: 33 70<-3.43866 257.718> 293 74<0.800093 349> 300 67<539.433 615.203>
LayerCount: 2
Fore
SplineSet
73 631 m 0xe0
 75 631 78 632 80 632 c 0
 93 632 105 625 111 614 c 0
 145 553 163 465 179 379 c 0
 186 344 192 309 199 277 c 1
 230 385 269 521 300 597 c 0
 305 610 317 618 332 618 c 0
 351 618 367 602 367 583 c 0
 367 582 l 0xd0
 362 446 362 117 361 29 c 0
 361 6.81640625 343.75390625 -4.2783203125 326.3828125 -4.2783203125 c 0
 308.755859375 -4.2783203125 291 7.14453125 291 30 c 1
 291 82 292 217 293 349 c 1
 269 268 247 188 231 140 c 0
 226 126 214 115 198 115 c 0
 184 115 171 124 166 136 c 0
 140 195 126 281 110 366 c 0
 109 370 109 374 108 378 c 1
 107 256 107 122 103 27 c 0
 102 8 87 -6 68 -6 c 0
 67 -6 67 -6 66 -6 c 0
 47 -5 33 10 33 29 c 0
 33 30 33 29 33 30 c 0
 40 183 32 451 46 600 c 0
 47 615 58 628 73 631 c 0xe0
EndSplineSet
Validated: 1
EndChar

StartChar: N
Encoding: 46 78 46
Width: 400
VWidth: 774
Flags: W
HStem: 601 20G<80 96> 607 20G<313.5 333.5>
VStem: 42 77<4.72898 441> 42 70<0.775963 201.374> 283 68<1.625 77.0604> 288 70<211 624.359>
LayerCount: 2
Fore
SplineSet
324 627 m 0x64
 343 627 358 611 358 592 c 0
 358 591 l 0
 357 559 357 524 357 487 c 0
 357 429 358 366 358 300 c 0x64
 358 213 356 121 351 32 c 0
 350 14 335 -1 316 -1 c 0
 301 -1 288 8 283 22 c 0
 238 149 177 303 116 441 c 1
 116 435 116 428 116 422 c 0
 116 352 119 280 119 204 c 0x68
 119 148 117 91 112 30 c 0x50
 110 12 95 -2 77 -2 c 0
 76 -2 75 -2 74 -2 c 0
 56 0 42 15 42 33 c 0
 42 34 42 35 42 36 c 0
 47 91 48 145 48 197 c 0
 48 271 45 343 45 415 c 0
 45 473 47 531 54 590 c 0
 56 607 71 621 89 621 c 0
 103 621 114 613 120 601 c 0xa0
 175 485 235 344 287 211 c 1
 287 241 288 271 288 301 c 0
 288 367 287 430 287 490 c 0
 287 526 287 561 288 593 c 0
 288 612 304 627 323 627 c 0
 324 627 l 0x64
EndSplineSet
Validated: 1
EndChar

StartChar: O
Encoding: 47 79 47
Width: 400
VWidth: 774
Flags: W
HStem: -9 70<143.049 248.889> 563 70<178.834 262.652>
VStem: 8 70<134.959 389.64> 322 70<173.152 460.889>
LayerCount: 2
Fore
SplineSet
224 633 m 0
 345 633 392 455 392 299 c 0
 392 163 326 -9 206 -9 c 0
 98 -9 8 90 8 231 c 0
 8 414 85 633 224 633 c 0
224 563 m 0
 143 563 78 387 78 231 c 0
 78 137 131 61 206 61 c 0
 272 61 322 194 322 298 c 0
 322 301 316 563 224 563 c 0
EndSplineSet
Validated: 1
EndChar

StartChar: P
Encoding: 48 80 48
Width: 400
VWidth: 774
Flags: W
HStem: 275 71<123 198.473> 556 61<122.609 263.009>
VStem: 34 69<-3.68738 256.443> 51 71<39.2993 278.411 346 553.416> 299 67<419.853 522.713>
LayerCount: 2
Fore
SplineSet
213 617 m 2xd8
 214 617 215 617 216 617 c 0
 296 617 366 549 366 469 c 0
 366 450 362 430 353 410 c 0
 324 348 251 298 123 275 c 1
 123 196 120 115 103 22 c 0
 100 5 86 -6 69 -6 c 0
 67 -6 65 -6 63 -6 c 0
 46 -3 34 13 34 30 c 0
 34 32 34 33 34 35 c 0xe8
 49 118 52 193 52 266 c 0
 52 319 51 371 51 426 c 0
 51 475 52 527 57 583 c 0
 59 602 76 614 95 614 c 2
 213 617 l 2xd8
290 439 m 0
 296 451 299 464 299 475 c 0
 299 522 250 556 178 556 c 0
 161 556 143 554 124 550 c 1
 121 525 121 493 121 462 c 0
 121 418 122 374 122 354 c 0
 122 351 122 348 122 346 c 1xd8
 229 367 275 407 290 439 c 0
EndSplineSet
Validated: 1
EndChar

StartChar: Q
Encoding: 49 81 49
Width: 400
VWidth: 774
Flags: W
HStem: -134 69<247.566 311.227> 563 70<178.834 262.522>
VStem: 8 70<134.231 389.64> 155 70<74 154.789> 322 70<171.194 461.111>
LayerCount: 2
Fore
SplineSet
224 633 m 0
 344 633 392 456 392 299 c 0
 392 173 334 14 229 -7 c 1
 233 -33 241 -53 255 -61 c 0
 261 -64 266 -65 271 -65 c 0
 283 -65 294 -58 298 -53 c 0
 305 -45 315 -40 325 -40 c 0
 333 -40 340 -43 347 -49 c 0
 355 -56 360 -66 360 -76 c 0
 360 -84 357 -92 351 -99 c 0
 334 -118 301 -134 267 -134 c 0
 252 -134 236 -131 222 -123 c 0
 182 -102 165 -54 158 -2 c 1
 73 22 8 111 8 231 c 0
 8 414 85 633 224 633 c 0
224 563 m 0
 143 563 78 387 78 231 c 0
 78 160 108 99 155 74 c 1
 156 107 159 137 162 159 c 0
 164 177 179 190 197 190 c 0
 198 190 200 190 201 190 c 0
 219 188 232 173 232 155 c 0
 232 151 226 115 225 65 c 1
 281 88 322 205 322 298 c 0
 322 301 316 563 224 563 c 0
EndSplineSet
Validated: 1
EndChar

StartChar: R
Encoding: 50 82 50
Width: 400
VWidth: 774
Flags: W
HStem: 568 69<140.182 224.62>
VStem: 67 70<55.6954 291 361 567.25> 266 69<423.172 527.684> 274 70<3.95015 187.992>
LayerCount: 2
Fore
SplineSet
170 637 m 0xd0
 228 637 290 601 320 540 c 0
 329 521 335 499 335 475 c 0xe0
 335 428 313 376 246 334 c 1
 342 257 344 39 344 36 c 0
 344 18 329 2 311 1 c 0
 310 1 310 1 309 1 c 0
 291 1 275 16 274 34 c 0
 267 130 258 292 150 292 c 0
 146 292 141 291 137 291 c 1
 137 207 136 122 126 30 c 0
 124 12 109 -1 91 -1 c 0
 90 -1 88 -1 87 -1 c 0
 69 1 56 16 56 34 c 0
 56 52 67 94 67 280 c 0
 67 317 66 355 66 393 c 0
 66 453 67 516 71 583 c 0
 72 593 77 603 85 609 c 0
 111 629 141 637 170 637 c 0xd0
257 509 m 0
 241 540 205 568 169 568 c 0
 159 568 149 566 140 561 c 1
 137 491 136 425 136 361 c 1
 218 388 266 428 266 474 c 0
 266 485 263 497 257 509 c 0
EndSplineSet
Validated: 1
EndChar

StartChar: S
Encoding: 51 83 51
Width: 400
VWidth: 774
Flags: W
HStem: -1 70<129.296 251.843> 563 69<165.75 282.101>
VStem: 18 67<116.422 175.76> 51 70<430.056 522.538> 312 70<127.533 244.715>
LayerCount: 2
Fore
SplineSet
227 632 m 0xd8
 269 632 313 615 345 577 c 0
 350 570 353 562 353 554 c 0
 353 544 349 535 341 528 c 0
 334 523 326 520 318 520 c 0
 308 520 299 524 292 532 c 0
 273 554 252 563 229 563 c 0
 225 563 221 562 217 562 c 0
 173 557 121 518 121 474 c 0xd8
 121 468 122 463 124 457 c 0
 151 371 344 372 378 222 c 0
 381 210 382 198 382 187 c 0
 382 88 288 -1 188 -1 c 0
 181 -1 175 -1 168 0 c 0
 108 7 51 51 20 131 c 0
 18 135 18 140 18 144 c 0
 18 158 26 171 40 176 c 0
 44 178 49 178 53 178 c 0
 67 178 80 170 85 156 c 0xe8
 109 94 142 74 176 70 c 0
 180 70 183 69 187 69 c 0
 246 69 312 124 312 186 c 0
 312 192 312 199 310 206 c 0
 284 320 98 307 57 436 c 0
 53 449 51 462 51 475 c 0
 51 564 147 632 227 632 c 0xd8
EndSplineSet
Validated: 1
EndChar

StartChar: T
Encoding: 52 84 52
Width: 400
VWidth: 774
Flags: W
HStem: 557 70<37.961 165 235 362.709>
VStem: 156 70<25.6725 445.241> 165 70<7.44001 205.427 307.827 552>
LayerCount: 2
Fore
SplineSet
71 623 m 0xa0
 89 622 104 621 120 621 c 0
 172 621 217 627 271 627 c 0
 291 627 312 626 335 624 c 0
 353 622 367 607 367 589 c 0
 367 570 351 554 332 554 c 0
 331 554 330 554 329 554 c 0
 307 556 286 557 267 557 c 0
 256 557 246 556 235 556 c 1
 235 551 235 547 235 543 c 0xa0
 235 423 226 321 226 210 c 0
 226 112 234 42 234 40 c 0
 234 22 220 6 202 4 c 0
 201 4 200 4 199 4 c 0
 181 4 166 18 164 36 c 0
 158 98 156 155 156 209 c 0xc0
 156 323 165 424 165 540 c 0
 165 544 165 548 165 552 c 1
 150 552 134 551 118 551 c 0
 102 551 84 551 66 553 c 0
 48 554 33 570 33 588 c 0
 33 608 50 623 69 623 c 0
 70 623 70 623 71 623 c 0xa0
EndSplineSet
Validated: 1
EndChar

StartChar: U
Encoding: 53 85 53
Width: 400
VWidth: 774
Flags: W
HStem: 0 70<152.026 252.868> 601 20G<51 71 331.5 350.5>
VStem: 18 71<166.541 599.07> 312 70<159.205 614.619>
LayerCount: 2
Fore
SplineSet
341 621 m 0
 360 621 376 604 376 585 c 0
 376 583 376 580 376 578 c 0
 376 536 382 457 382 370 c 0
 382 334 381 298 378 262 c 0
 367 129 326 0 205 0 c 0
 83 0 39 122 25 238 c 0
 20 282 18 329 18 374 c 0
 18 453 23 529 26 587 c 0
 27 605 42 621 60 621 c 0
 61 621 61 621 62 621 c 0
 80 620 96 605 96 587 c 0
 96 585 89 451 89 374 c 0
 89 330 90 286 95 246 c 0
 104 180 120 72 205 70 c 1
 292 74 301 203 308 268 c 0
 311 301 312 335 312 369 c 0
 312 451 306 530 306 579 c 0
 306 582 306 584 306 587 c 0
 306 606 322 621 341 621 c 0
EndSplineSet
Validated: 1
EndChar

StartChar: V
Encoding: 54 86 54
Width: 400
VWidth: 774
Flags: W
HStem: 607 20G<328 337>
VStem: 302 68<538.822 623.972>
LayerCount: 2
Fore
SplineSet
302 604 m 0
 307 618 321 627 335 627 c 0
 339 627 344 626 348 624 c 0
 362 619 370 605 370 591 c 0
 370 587 370 582 368 578 c 0
 321 456 265 137 222 20 c 0
 217 6 203 -3 188 -3 c 0
 173 -3 160 7 156 21 c 0
 112 162 70 428 31 579 c 0
 30 582 30 585 30 588 c 0
 30 604 40 618 56 622 c 0
 59 623 62 623 65 623 c 0
 81 623 95 613 99 597 c 0
 130 480 161 303 191 167 c 1
 226 313 252 462 302 604 c 0
EndSplineSet
Validated: 1
EndChar

StartChar: W
Encoding: 55 87 55
Width: 400
VWidth: 774
Flags: W
HStem: 608 20G<45.5 64.5 335.5 354.5>
VStem: 19 70<339.157 625.031> 86 69<1.66968 126.5> 168 70<338.797 477.125> 231 69<2.72529 113.159> 311 70<349.135 622.031>
LayerCount: 2
Fore
SplineSet
55 628 m 0xc4
 74 628 89 611 89 592 c 0
 89 586 89 579 89 573 c 0
 89 472 103 335 122 216 c 1
 140 306 157 394 168 451 c 0
 171 467 186 480 202 480 c 0
 203 480 203 480 204 480 c 0
 221 479 236 466 238 449 c 0xd4
 246 392 258 307 271 223 c 1
 297 374 311 522 311 583 c 0
 311 585 311 587 311 589 c 0
 311 608 326 625 345 625 c 0
 364 625 381 610 381 591 c 0
 381 588 381 584 381 580 c 0
 381 477 354 227 300 26 c 0
 296 11 281 0 266 0 c 0
 265 0 265 0 264 0 c 0
 248 1 234 13 231 29 c 0
 221 89 209 164 198 237 c 1
 184 167 169 92 155 27 c 0
 152 11 137 -1 121 -1 c 0
 105 -1 90 10 86 26 c 0xac
 55 158 19 400 19 569 c 0
 19 578 19 586 19 594 c 0
 19 613 36 628 55 628 c 0xc4
EndSplineSet
Validated: 1
EndChar

StartChar: X
Encoding: 56 88 56
Width: 400
VWidth: 774
Flags: W
HStem: 610 20G<63.5 72.5 328 337>
VStem: 33.5 68<-3.88369 84.0625 537.613 626.652> 298.5 69<0.636963 83.2546 533.283 625.606>
LayerCount: 2
Fore
SplineSet
54.5 628 m 0
 58.5 629 61.5 630 65.5 630 c 0
 79.5 630 92.5 621 98.5 606 c 0
 134.5 500 167.5 433 199.5 378 c 1
 236.5 437 270.5 499 301.5 604 c 0
 306.5 620 320.5 629 335.5 629 c 0
 338.5 629 341.5 629 344.5 628 c 0
 360.5 624 369.5 610 369.5 595 c 0
 369.5 592 369.5 588 368.5 585 c 0
 330.5 455 284.5 380 240.5 311 c 1
 283.5 241 326.5 172 365.5 43 c 0
 366.5 39 367.5 36 367.5 33 c 0
 367.5 18 356.5 4 341.5 -1 c 0
 337.5 -2 334.5 -3 331.5 -3 c 0
 316.5 -3 303.5 8 298.5 23 c 0
 266.5 128 234.5 186 198.5 245 c 1
 163.5 188 130.5 123 101.5 19 c 0
 97.5 3 83.5 -6 68.5 -6 c 0
 65.5 -6 61.5 -6 58.5 -5 c 0
 42.5 -1 33.5 13 33.5 28 c 0
 33.5 31 33.5 35 34.5 38 c 0
 70.5 167 114.5 245 157.5 312 c 1
 119.5 376 76.5 454 32.5 584 c 0
 31.5 588 30.5 591 30.5 595 c 0
 30.5 610 40.5 623 54.5 628 c 0
EndSplineSet
Validated: 1
EndChar

StartChar: Y
Encoding: 57 89 57
Width: 400
VWidth: 774
Flags: W
HStem: 611 16G<72 81.5 318.5 327.5>
VStem: 39 69<548.012 623.97> 170 70<-1.87566 346.393> 293 68<560.393 627.796>
LayerCount: 2
Fore
SplineSet
293 610 m 0
 299 624 312 631 325 631 c 0
 330 631 334 630 339 628 c 0
 353 622 361 610 361 596 c 0
 361 591 360 586 358 582 c 0
 318 489 293 407 240 311 c 1
 240 293 240 275 240 258 c 0
 240 201 241 147 241 94 c 0
 241 72 241 50 240 29 c 0
 239 11 224 -5 206 -5 c 0
 205 -5 205 -5 204 -5 c 0
 186 -4 170 11 170 29 c 0
 170 30 171 56 171 102 c 0
 171 154 170 209 170 268 c 0
 170 279 170 291 170 303 c 1
 124 399 71 492 41 581 c 0
 40 585 39 588 39 592 c 0
 39 607 49 620 63 625 c 0
 67 626 70 627 74 627 c 0
 89 627 103 617 108 603 c 0
 129 540 165 469 203 393 c 1
 237 463 259 531 293 610 c 0
EndSplineSet
Validated: 1
EndChar

StartChar: Z
Encoding: 58 90 58
Width: 400
VWidth: 774
Flags: W
HStem: -3 70<245.501 372.113> 3 71<121.922 343.36> 551 70<39.7969 284>
LayerCount: 2
Fore
SplineSet
340 627 m 0x60
 360 627 375 610 375 592 c 0
 375 587 373 582 371 577 c 0
 319 470 188 200 120 68 c 1
 161 71 202 74 244 74 c 0x60
 276 74 310 72 345 67 c 0
 362 64 375 49 375 32 c 0
 375 30 375 29 375 27 c 0
 372 10 357 -3 340 -3 c 0
 338 -3 337 -3 335 -3 c 0xa0
 304 1 274 3 244 3 c 0
 186 3 129 -3 61 -5 c 0
 60 -5 l 0
 40 -5 25 12 25 30 c 0
 25 36 26 42 29 47 c 0
 68 116 211 406 284 556 c 1
 220 554 136 551 72 551 c 0
 53 551 37 567 37 586 c 0
 37 605 53 621 72 621 c 0
 154 621 270 627 340 627 c 0x60
EndSplineSet
Validated: 1
EndChar

StartChar: bracketleft
Encoding: 59 91 59
Width: 400
VWidth: 774
Flags: W
HStem: -5 71<155 322.685> 554 71<149.686 320.3>
VStem: 74 69<197.067 549.538> 85 70<66 277.914>
LayerCount: 2
Fore
SplineSet
114 617 m 0xe0
 163 621 207 625 256 625 c 0
 267 625 278 624 289 624 c 0
 308 624 324 607 324 588 c 0
 324 569 307 554 288 554 c 0
 276 554 265 554 254 554 c 0
 218 554 184 553 148 550 c 1
 145 513 143 474 143 433 c 0xe0
 143 318 154 192 155 66 c 1
 188 66 215 64 244 64 c 0
 258 64 273 65 288 66 c 0
 289 66 291 66 292 66 c 0
 311 66 326 50 326 31 c 0
 326 14 313 -1 295 -3 c 0
 276 -5 258 -5 241 -5 c 0
 213 -5 188 -4 161 -4 c 0
 149 -4 136 -4 123 -5 c 0
 122 -5 122 -5 121 -5 c 0
 102 -5 85 12 85 31 c 0
 85 35 85 38 85 42 c 0xd0
 85 169 74 302 74 428 c 0
 74 483 76 536 82 587 c 0
 84 603 98 616 114 617 c 0xe0
EndSplineSet
Validated: 1
EndChar

StartChar: backslash
Encoding: 60 92 60
Width: 400
VWidth: 774
Flags: W
VStem: 75 66<551.799 612.714> 258 67<2.24021 74.5885>
LayerCount: 2
Fore
SplineSet
95 613 m 0
 100 615 105 616 110 616 c 0
 123 616 135 609 141 596 c 0
 221 423 255 224 323 47 c 0
 325 43 325 38 325 34 c 0
 325 20 317 7 303 2 c 0
 299 0 294 0 290 0 c 0
 276 0 263 8 258 22 c 0
 186 208 152 406 78 567 c 0
 76 572 75 577 75 582 c 0
 75 595 82 607 95 613 c 0
EndSplineSet
Validated: 1
EndChar

StartChar: bracketright
Encoding: 61 93 61
Width: 400
VWidth: 774
Flags: W
HStem: -7 71<101.036 262.663> 0 70<66.9689 258.733> 553 73<71.3438 260.761>
VStem: 266 70<66.1108 557>
LayerCount: 2
Fore
SplineSet
107 626 m 0xb0
 118 624 130 624 142 624 c 0
 176 624 213 628 252 628 c 0
 269 628 286 627 302 625 c 0
 319 622 332 607 332 590 c 0
 332 586 330 563 330 510 c 0
 330 421 336 314 336 209 c 0
 336 146 334 83 327 24 c 0
 325 6 310 -7 292 -7 c 0xb0
 246 -7 147 -1 98 0 c 0
 79 0 64 17 64 36 c 0
 64 55 80 70 99 70 c 0x70
 142 69 213 66 261 64 c 1
 265 109 266 156 266 205 c 0
 266 307 260 414 260 507 c 0
 260 524 261 541 261 557 c 1
 230 557 190 553 150 553 c 0
 132 553 115 554 97 556 c 0
 80 559 67 574 67 591 c 0
 67 593 67 594 67 596 c 0
 70 613 85 626 102 626 c 0
 104 626 105 626 107 626 c 0xb0
EndSplineSet
Validated: 1
EndChar

StartChar: asciicircum
Encoding: 62 94 62
Width: 400
VWidth: 774
Flags: W
HStem: 380 246
VStem: 63.5 273<404 422>
LayerCount: 2
Fore
SplineSet
199.5 626 m 0
 201.5 626 202.5 626 204.5 626 c 0
 216.5 626 228.5 620 234.5 609 c 0
 259.5 565 303.5 478 331.5 434 c 0
 334.5 428 336.5 422 336.5 416 c 0
 336.5 404 330.5 392 320.5 385 c 0
 314.5 382 308.5 380 302.5 380 c 0
 290.5 380 279.5 386 272.5 396 c 0
 249.5 431 223.5 482 201.5 524 c 1
 173.5 481 140.5 426 131.5 404 c 0
 126.5 390 112.5 382 98.5 382 c 0
 94.5 382 89.5 383 85.5 385 c 0
 71.5 390 63.5 404 63.5 418 c 0
 63.5 422 64.5 427 66.5 431 c 0
 87.5 483 148.5 574 175.5 612 c 0
 181.5 620 190.5 625 199.5 626 c 0
EndSplineSet
Validated: 1
EndChar

StartChar: underscore
Encoding: 63 95 63
Width: 400
VWidth: 774
Flags: W
HStem: -1 72<43.2603 355.526>
VStem: 39 322<2.14308 62.4527>
LayerCount: 2
Fore
SplineSet
73 68 m 0
 123 69 165 71 205 71 c 0
 248 71 288 69 330 65 c 0
 348 63 361 48 361 31 c 0
 361 12 346 -4 327 -4 c 0
 326 -4 324 -4 323 -4 c 0
 282 0 239 2 196 2 c 0
 157 2 116 0 75 -1 c 0
 74 -1 74 -1 73 -1 c 0
 54 -1 39 15 39 34 c 0
 39 52 55 67 73 68 c 0
EndSplineSet
Validated: 1
EndChar

StartChar: grave
Encoding: 64 96 64
Width: 400
VWidth: 774
Flags: W
HStem: 484 67<223.461 284.214> 607 20G<144.5 153>
VStem: 112.5 175
LayerCount: 2
Fore
SplineSet
125.5 618 m 0
 132.5 624 140.5 627 148.5 627 c 0
 157.5 627 167.5 623 174.5 615 c 0
 202.5 582 223.5 570 266.5 551 c 0
 279.5 545 287.5 532 287.5 519 c 0
 287.5 514 286.5 510 284.5 505 c 0
 278.5 492 265.5 484 252.5 484 c 0
 247.5 484 243.5 485 238.5 487 c 0
 191.5 508 155.5 529 121.5 569 c 0
 115.5 576 112.5 583 112.5 591 c 0
 112.5 601 117.5 611 125.5 618 c 0
EndSplineSet
Validated: 1
EndChar

StartChar: a
Encoding: 65 97 65
Width: 400
VWidth: 774
Flags: W
HStem: -9 70<112.087 277.598> 181 69<131.385 259.095> 337 70<160.003 252.686>
VStem: 33.5 70<71.5658 153.701>
LayerCount: 2
Fore
SplineSet
210.5 407 m 0
 211.5 407 212.5 407 213.5 407 c 0
 344.5 407 366.5 248 366.5 140 c 0
 366.5 107 364.5 79 362.5 62 c 0
 358.5 32 251.5 -9 172.5 -9 c 0
 169.5 -9 167.5 -9 164.5 -9 c 0
 73.5 -6 33.5 52 33.5 108 c 0
 33.5 166 74.5 223 140.5 242 c 0
 159.5 247 177.5 250 194.5 250 c 0
 233.5 250 267.5 237 291.5 217 c 1
 282.5 276 264.5 310 246.5 325 c 0
 235.5 334 224.5 337 213.5 337 c 0
 178.5 337 143.5 303 132.5 290 c 0
 125.5 282 115.5 278 105.5 278 c 0
 97.5 278 88.5 281 82.5 287 c 0
 75.5 294 71.5 303 71.5 313 c 0
 71.5 322 74.5 330 80.5 337 c 0
 105.5 365 152.5 406 210.5 407 c 0
198.5 181 m 0
 140.5 180 103.5 145 103.5 108 c 0
 103.5 69 145.5 62 167.5 61 c 0
 173.5 61 178.5 61 183.5 61 c 0
 223.5 61 250.5 68 294.5 90 c 1
 291.5 135 256.5 181 200.5 181 c 0
 199.5 181 199.5 181 198.5 181 c 0
EndSplineSet
Validated: 1
EndChar

StartChar: b
Encoding: 66 98 66
Width: 400
VWidth: 774
Flags: W
HStem: -1 71<102.239 240.641> 317 70<168.358 278.344> 608 20G<59.5 78.5>
VStem: 34 70<334 625.203> 300 71<135.296 294.312>
LayerCount: 2
Fore
SplineSet
69 628 m 0
 88 628 104 612 104 593 c 0
 104 579 104 566 104 554 c 0
 104 477 106 419 107 334 c 1
 141 369 184 387 233 387 c 0
 242 387 251 386 261 385 c 0
 318 378 364 325 370 240 c 0
 370 233 371 226 371 219 c 0
 371 63 255 1 178 0 c 0
 156 0 134 -1 111 -1 c 0
 94 -1 77 0 61 1 c 0
 43 3 29 17 29 35 c 0
 29 45 37 104 37 261 c 0
 37 362 34 464 34 568 c 0
 34 577 34 585 34 594 c 0
 34 613 50 628 69 628 c 0
225 317 m 0
 200 316 153 307 125 230 c 0
 110 190 105 106 102 70 c 1
 111 70 119 70 128 70 c 0
 145 70 162 70 178 70 c 0
 253 72 300 140 300 221 c 0
 300 226 300 230 300 235 c 0
 296 278 277 317 233 317 c 0
 230 317 228 317 225 317 c 0
EndSplineSet
Validated: 1
EndChar

StartChar: c
Encoding: 67 99 67
Width: 400
VWidth: 774
Flags: W
HStem: -11 70<127.244 279.532> 314 70<165.069 289.775>
VStem: 29 70<86.6085 235.132>
LayerCount: 2
Fore
SplineSet
223 384 m 0
 285 384 328 358 363 314 c 0
 368 307 371 300 371 292 c 0
 371 282 366 272 358 265 c 0
 351 260 344 257 336 257 c 0
 326 257 316 262 309 270 c 0
 279 308 271 314 223 314 c 0
 137 314 99 206 99 144 c 0
 99 70 166 59 199 59 c 0
 258 59 283 73 302 108 c 0
 308 120 320 127 333 127 c 0
 338 127 344 126 349 123 c 0
 361 117 368 104 368 91 c 0
 368 86 367 80 364 75 c 0
 334 17 273 -11 199 -11 c 0
 92 -11 29 58 29 144 c 0
 29 258 104 384 223 384 c 0
EndSplineSet
Validated: 1
EndChar

StartChar: d
Encoding: 68 100 68
Width: 400
VWidth: 774
Flags: W
HStem: -3 70<115.851 238.393> 331 70<149.843 272.971> 611 20G<320 329>
VStem: 20 70<92.5992 268.703> 286 69<125.953 270.998 458.852 628.222> 310 70<371 581.842>
LayerCount: 2
Fore
SplineSet
314 630 m 0xf8
 316 631 319 631 321 631 c 0
 337 631 352 620 355 603 c 0xf8
 366 551 380 461 380 396 c 0
 380 331 376 237 352 156 c 0
 331 87 285 -3 183 -3 c 0
 42 -3 20 107 20 177 c 0
 20 290 84 369 161 393 c 0
 178 398 195 401 213 401 c 0
 247 401 282 391 310 371 c 1
 310 380 310 388 310 396 c 0xf4
 310 451 296 549 287 588 c 0
 286 590 286 593 286 595 c 0
 286 611 297 627 314 630 c 0xf8
285 176 m 0
 294 206 299 230 302 273 c 1
 281 314 245 331 212 331 c 0
 202 331 191 329 182 326 c 0
 134 311 90 265 90 177 c 0
 90 102 113 67 183 67 c 0
 245 69 269 124 285 176 c 0
EndSplineSet
Validated: 1
EndChar

StartChar: e
Encoding: 69 101 69
Width: 400
VWidth: 774
Flags: W
HStem: -10 70<139.888 264.896> 151 69<117.643 217.249> 316 70<169.57 257.68>
VStem: 33 71<97.3933 160> 258 70<258.034 315.483>
LayerCount: 2
Fore
SplineSet
232 386 m 0
 297 386 328 337 328 292 c 0
 328 237 287 196 236 170 c 0
 212 158 184 151 156 151 c 0
 139 151 121 154 104 160 c 1
 107 86 157 61 197 60 c 0
 198 60 198 60 199 60 c 0
 237 60 280 84 302 120 c 0
 309 131 320 137 332 137 c 0
 338 137 344 135 350 132 c 0
 361 125 367 114 367 102 c 0
 367 96 365 90 362 84 c 0
 328 27 265 -10 200 -10 c 0
 198 -10 197 -10 195 -10 c 0
 107 -7 33 58 33 166 c 0
 33 312 157 386 232 386 c 0
231 316 m 0
 195 316 142 287 117 231 c 1
 129 223 143 220 156 220 c 0
 172 220 188 225 204 233 c 0
 237 250 258 284 258 292 c 0
 258 313 250 315 231 316 c 0
EndSplineSet
Validated: 1
EndChar

StartChar: f
Encoding: 70 102 70
Width: 400
VWidth: 0
Flags: W
HStem: -9 21G<115.5 134.5> 272 70<46.7969 88 158 280.3> 571 70<184.746 238.463>
VStem: 92 70<-5.29953 272 342 550.782>
LayerCount: 2
Fore
SplineSet
211 641 m 0
 315 639 350 488 355 463 c 0
 356 461 356 458 356 456 c 0
 356 440 345 425 328 422 c 0
 326 421 323 421 321 421 c 0
 305 421 290 432 287 449 c 0
 271 528 228 568 211 571 c 0
 210 571 209 571 208 571 c 0
 183 571 167 518 163 470 c 0
 160 425 158 383 158 342 c 1
 179 342 199 343 248 344 c 0
 267 344 284 329 284 310 c 0
 284 291 269 274 250 274 c 0
 200 273 180 272 158 272 c 1
 159 209 162 147 162 78 c 0
 162 61 161 44 161 26 c 0
 161 7 144 -9 125 -9 c 0
 106 -9 91 8 91 27 c 0
 91 44 92 61 92 78 c 0
 92 146 89 208 88 272 c 0
 84 272 83 272 79 272 c 0
 60 272 44 288 44 307 c 0
 44 326 60 342 79 342 c 0
 83 342 84 342 88 342 c 0
 88 384 89 428 93 475 c 0
 97 520 116 641 209 641 c 0
 210 641 210 641 211 641 c 0
EndSplineSet
Validated: 1
EndChar

StartChar: g
Encoding: 71 103 71
Width: 400
VWidth: 774
Flags: W
HStem: -235 70<104.773 247.709> 1 70<125.597 236.717> 320 67<185.597 298.052>
VStem: 18 70<-146.952 -69.7969> 39 70<86.5379 235.662> 312 70<-87.3602 272.522>
LayerCount: 2
Fore
SplineSet
229 387 m 0xec
 231 387 234 387 236 387 c 0
 279 387 323 371 358 332 c 0
 369 320 370 302 374 234 c 0
 378 166 382 140 382 17 c 0
 382 -183 264 -235 169 -235 c 0
 74 -235 19 -190 18 -102 c 0
 18 -83 34 -67 53 -67 c 0
 72 -67 88 -82 88 -101 c 0xf4
 88 -115 92 -165 169 -165 c 0
 296 -165 312 -46 312 17 c 0
 312 32 312 54 311 69 c 1
 275 25 222 1 170 1 c 0
 162 1 153 2 145 3 c 0
 84 13 39 81 39 157 c 0
 39 161 39 165 39 169 c 0
 46 282 135 383 229 387 c 0xec
239 320 m 0
 238 320 l 0
 183 320 114 245 109 164 c 0
 109 161 109 158 109 155 c 0xec
 109 124 119 77 156 72 c 0
 159 71 163 71 167 71 c 0
 199 71 247 90 274 124 c 0
 300 157 310 198 310 236 c 0
 310 257 307 277 302 294 c 1
 282 318 258 320 239 320 c 0
EndSplineSet
Validated: 1
EndChar

StartChar: h
Encoding: 72 104 72
Width: 400
VWidth: 774
Flags: W
HStem: 308 70<180.956 261.298> 605 20G<66 86>
VStem: 44 70<-1.03111 197.666 317 620.886> 287 71<0.143078 277.753>
LayerCount: 2
Fore
SplineSet
75 625 m 0
 76 625 76 625 77 625 c 0
 95 625 111 609 112 591 c 0
 114 542 115 430 115 317 c 1
 135 343 173 378 234 378 c 0
 313 378 341 293 351 227 c 0
 357 188 358 145 358 108 c 0
 358 78 357 51 357 31 c 0
 357 12 341 -3 322 -3 c 0
 303 -3 287 13 287 32 c 0
 287 51 287 75 287 100 c 0
 287 138 286 180 281 217 c 0
 274 262 261 308 234 308 c 0
 178 306 156 258 140 212 c 0
 120 152 115 76 114 30 c 0
 114 11 97 -4 78 -4 c 0
 59 -4 44 12 44 31 c 0
 44 78 45 194 45 310 c 0
 45 555 42 584 42 590 c 0
 42 608 57 624 75 625 c 0
EndSplineSet
Validated: 1
EndChar

StartChar: i
Encoding: 73 105 73
Width: 400
VWidth: 0
Flags: W
HStem: -16 70<162.087 237.426> 412 134<117.91 208.068>
VStem: 76.5 70<65.4622 338.242> 93.5 69<105.207 366.308> 99.5 127<430.574 527.831> 253.5 70<94.0945 132.371>
LayerCount: 2
Fore
SplineSet
162.5 546 m 0xd4
 196.5 546 226.5 515 226.5 475 c 0
 226.5 435 194.5 412 166.5 412 c 0
 128.5 412 99.5 444 99.5 479 c 0xcc
 99.5 520 130.5 546 162.5 546 c 0xd4
133.5 369 m 0
 150.5 366 162.5 352 162.5 335 c 0
 162.5 333 162.5 332 162.5 330 c 0xd4
 157.5 292 146.5 226 146.5 167 c 0
 146.5 160 146.5 153 146.5 147 c 0
 148.5 117 151.5 54 192.5 54 c 0
 224.5 55 245.5 76 253.5 107 c 0
 257.5 124 271.5 136 287.5 136 c 0
 289.5 136 292.5 135 294.5 135 c 0
 311.5 131 323.5 117 323.5 101 c 0
 323.5 99 322.5 96 322.5 94 c 0
 312.5 42 265.5 -16 192.5 -16 c 0
 96.5 -16 78.5 88 76.5 144 c 0
 76.5 151 76.5 158 76.5 165 c 0xe4
 76.5 233 88.5 303 93.5 340 c 0xd4
 96.5 357 111.5 369 128.5 369 c 0
 130.5 369 131.5 369 133.5 369 c 0
EndSplineSet
Validated: 1
EndChar

StartChar: j
Encoding: 74 106 74
Width: 400
VWidth: 774
Flags: W
HStem: -244 70<145.913 243.615> 365 20G<304.5 327.5> 445 134<244.41 334.568>
VStem: 29 70<-120.459 -5.77596> 226 127<463.574 560.831> 283 69<118.401 382.44> 301 70<-81.1085 321.593>
LayerCount: 2
Fore
SplineSet
289 579 m 0xf8
 323 579 353 548 353 508 c 0
 353 468 321 445 293 445 c 0
 255 445 226 477 226 512 c 0
 226 553 257 579 289 579 c 0xf8
317 385 m 0
 318 385 318 385 319 385 c 0
 336 385 350 371 352 354 c 0xf4
 367 242 371 158 371 88 c 0
 371 25 361 -244 202 -244 c 0
 72 -244 29 -107 29 -38 c 0
 29 -20 44 -4 62 -3 c 0
 63 -3 63 -3 64 -3 c 0
 82 -3 98 -17 99 -35 c 0
 101 -70 115 -174 202 -174 c 0
 284 -174 301 12 301 88 c 0xf2
 301 155 297 236 283 345 c 0
 283 347 283 348 283 350 c 0xf4
 283 367 296 382 313 385 c 0
 314 385 316 385 317 385 c 0
EndSplineSet
Validated: 1
EndChar

StartChar: k
Encoding: 75 107 75
Width: 400
VWidth: 0
Flags: W
HStem: 369 20G<295 304> 614 20G<74 94>
VStem: 45 74<5.25481 135.856 217 396.681> 54 70<5.25481 126.121 251.156 629.443>
LayerCount: 2
Fore
SplineSet
83 634 m 0xd0
 84 634 84 634 85 634 c 0
 103 634 119 620 120 602 c 0
 123 560 124 519 124 480 c 0xd0
 124 389 118 304 116 217 c 1
 183 270 234 333 273 377 c 0
 280 385 290 389 300 389 c 0
 308 389 316 386 322 380 c 0
 330 373 334 363 334 353 c 0
 334 345 331 337 325 331 c 0
 296 299 257 249 205 201 c 1
 228 193 246 178 260 162 c 0
 294 123 312 81 341 60 c 0
 350 54 355 44 355 33 c 0
 355 25 353 18 348 11 c 0
 341 1 332 -4 321 -4 c 0
 314 -4 306 -1 300 3 c 0
 250 39 230 91 208 116 c 0
 197 129 188 134 175 137 c 0
 171 138 167 138 162 138 c 0
 150 138 135 136 115 128 c 1
 115 88 119 42 119 36 c 0
 119 18 105 1 87 0 c 0
 86 0 86 0 85 0 c 0
 67 0 50 15 49 33 c 0
 46 76 45 118 45 158 c 0xe0
 45 271 54 373 54 483 c 0
 54 554 50 594 50 599 c 0
 50 617 65 633 83 634 c 0xd0
EndSplineSet
Validated: 1
EndChar

StartChar: l
Encoding: 76 108 76
Width: 400
VWidth: 0
Flags: W
HStem: -11 70<147.555 214.938> 619 20G<124.5 143.5>
VStem: 60 70<61.6021 401.409> 99 70<388.348 636.203> 271 69<111.789 179.576>
LayerCount: 2
Fore
SplineSet
134 639 m 0xd8
 153 639 169 623 169 604 c 0xd8
 169 457 130 316 130 183 c 0
 130 152 133 120 138 90 c 0
 142 65 148 62 155 60 c 0
 158 59 161 59 164 59 c 0
 200 59 267 113 271 151 c 0
 273 169 288 182 305 182 c 0
 306 182 308 182 309 182 c 0
 327 180 340 165 340 148 c 0
 340 90 250 -11 162 -11 c 0
 152 -11 142 -9 132 -6 c 0
 100 5 76 36 69 77 c 0
 62 115 60 152 60 189 c 0xe8
 60 333 99 473 99 604 c 0
 99 623 115 639 134 639 c 0xd8
EndSplineSet
Validated: 1
EndChar

StartChar: m
Encoding: 77 109 77
Width: 400
VWidth: 0
Flags: W
VStem: 25.5 70<2.50766 246.136 369 402.05> 168.5 70<3.14308 258.265> 306.5 70<2.72828 324.574>
LayerCount: 2
Fore
SplineSet
58.5 405 m 0
 59.5 405 59.5 405 60.5 405 c 0
 78.5 405 94.5 390 95.5 372 c 0
 95.5 371 95.5 370 95.5 369 c 1
 111.5 387 132.5 401 158.5 401 c 0
 197.5 401 214.5 363 219.5 350 c 1
 234.5 376 258.5 401 292.5 401 c 0
 333.5 401 352.5 360 361.5 322 c 0
 370.5 287 373.5 244 375.5 201 c 0
 376.5 174 376.5 149 376.5 126 c 0
 376.5 77 375.5 42 374.5 31 c 0
 373.5 13 357.5 -1 339.5 -1 c 0
 338.5 -1 338.5 -1 337.5 -1 c 0
 319.5 0 304.5 16 304.5 34 c 0
 304.5 36 306.5 71 306.5 127 c 0
 306.5 148 306.5 172 305.5 198 c 0
 303.5 239 299.5 296 287.5 326 c 1
 276.5 312 264.5 282 256.5 242 c 0
 243.5 179 238.5 98 238.5 35 c 0
 238.5 16 223.5 0 204.5 0 c 0
 185.5 0 169.5 15 168.5 34 c 0
 168.5 35 l 2
 168.5 43 168.5 51 168.5 60 c 0
 168.5 89 168.5 124 168.5 159 c 0
 168.5 184 168.5 210 167.5 234 c 0
 165.5 268 161.5 299 156.5 318 c 0
 155.5 322 153.5 326 152.5 329 c 1
 149.5 327 145.5 321 139.5 311 c 0
 129.5 293 120.5 263 113.5 229 c 0
 99.5 161 95.5 79 93.5 32 c 0
 92.5 13 77.5 -1 58.5 -1 c 0
 39.5 -1 23.5 15 23.5 34 c 0
 24.5 102 27.5 195 27.5 277 c 0
 27.5 341 25.5 366 25.5 370 c 0
 25.5 388 40.5 404 58.5 405 c 0
EndSplineSet
Validated: 1
EndChar

StartChar: n
Encoding: 78 110 78
Width: 400
VWidth: 774
Flags: W
HStem: 332 70<184.655 258.361>
VStem: 43.5 70<1.7947 210.263 338 401.707> 286.5 70<1.79688 297.375>
LayerCount: 2
Fore
SplineSet
77.5 405 m 0
 78.5 405 78.5 405 79.5 405 c 0
 97.5 405 113.5 390 114.5 372 c 0
 115.5 361 115.5 350 115.5 338 c 1
 126.5 353 164.5 402 233.5 402 c 0
 311.5 402 339.5 316 349.5 240 c 0
 355.5 192 356.5 142 356.5 99 c 0
 356.5 73 356.5 51 356.5 34 c 0
 356.5 15 340.5 -1 321.5 -1 c 0
 302.5 -1 286.5 15 286.5 34 c 0
 286.5 53 286.5 78 286.5 105 c 0
 286.5 145 285.5 191 280.5 231 c 0
 275.5 266 263.5 332 233.5 332 c 0
 176.5 330 154.5 272 139.5 226 c 0
 119.5 160 114.5 78 113.5 32 c 0
 113.5 13 96.5 -1 77.5 -1 c 0
 58.5 -1 43.5 12 43.5 40 c 0
 44.5 79 46.5 172 46.5 258 c 0
 46.5 338 44.5 366 44.5 370 c 0
 44.5 388 59.5 404 77.5 405 c 0
EndSplineSet
Validated: 1
EndChar

StartChar: o
Encoding: 79 111 79
Width: 400
VWidth: 774
Flags: W
HStem: -7 70<128.578 251.762> 317 70<137.426 266.045>
VStem: 21 70<100.882 265.636> 309 70<122.136 268.248>
LayerCount: 2
Fore
SplineSet
208 387 m 0
 312 387 379 294 379 180 c 0
 379 93 297 -2 199 -7 c 0
 196 -7 192 -7 189 -7 c 0
 108 -7 21 54 21 176 c 0
 21 310 101 387 208 387 c 0
208 317 m 0
 103 317 91 220 91 176 c 0
 91 67 178 63 193 63 c 0
 194 63 195 63 195 63 c 0
 258 67 309 134 309 180 c 0
 309 188 307 317 208 317 c 0
EndSplineSet
Validated: 1
EndChar

StartChar: p
Encoding: 80 112 80
Width: 400
VWidth: 774
Flags: W
HStem: -243 21G<65 87> -7 71<113 207.563> 313 68<170.079 267.391>
VStem: 34 75<-237.938 -8.3457> 44 69<66.0782 247.754> 298 70<133.932 281.211>
LayerCount: 2
Fore
SplineSet
97 317 m 1xec
 131 359 170 381 225 381 c 0
 295 381 368 327 368 196 c 0
 368 111 305 52 239 23 c 0
 189 1 156 -4 109 -7 c 1
 107 -44 105 -81 105 -118 c 0
 105 -169 109 -207 109 -208 c 0
 109 -226 96 -241 78 -243 c 0
 77 -243 75 -243 74 -243 c 0
 56 -243 41 -230 39 -212 c 0
 35 -177 34 -143 34 -110 c 0xf4
 34 -18 44 69 44 156 c 0
 44 201 42 247 33 293 c 0
 33 295 32 298 32 300 c 0
 32 316 44 329 61 333 c 0
 63 333 66 334 68 334 c 0
 80 334 91 327 97 317 c 1xec
298 196 m 0
 298 270 268 313 219 313 c 0
 218 313 217 313 216 313 c 0
 184 312 128 267 122 207 c 0
 116 147 115 105 113 64 c 1xec
 115 64 117 64 119 64 c 0
 148 64 174 71 211 87 c 0
 262 110 298 144 298 196 c 0
EndSplineSet
Validated: 1
EndChar

StartChar: q
Encoding: 81 113 81
Width: 400
VWidth: 774
Flags: W
HStem: -10 69<124.111 198.485> 314 70<182.651 283.699>
VStem: 42 70<66.6175 232.464> 270 70<-234.641 23.4634> 285 73<162.551 307.371>
LayerCount: 2
Fore
SplineSet
237 384 m 0xf0
 275 383 315 364 348 329 c 0
 355 322 358 313 358 304 c 0xe8
 358 298 357 293 354 288 c 1
 353 146 350 -67 340 -205 c 0
 339 -223 322 -238 304 -238 c 0
 303 -238 303 -238 302 -238 c 0
 284 -237 270 -221 270 -203 c 0
 270 -188 275 -152 280 66 c 1
 260 41 237 21 213 7 c 0
 194 -4 172 -10 150 -10 c 0
 95 -10 42 30 42 151 c 0
 42 269 133 384 233 384 c 0
 234 384 236 384 237 384 c 0xf0
235 314 m 0
 234 314 234 314 233 314 c 0
 170 314 112 220 112 151 c 0
 112 113 118 59 152 59 c 0
 160 59 168 62 179 68 c 0
 221 92 285 143 285 273 c 0
 285 279 285 286 285 293 c 1
 265 310 250 314 235 314 c 0
EndSplineSet
Validated: 1
EndChar

StartChar: r
Encoding: 82 114 82
Width: 400
VWidth: 774
Flags: W
HStem: 313 70<159.993 267.052> 368 20G<78.5 97.1997>
VStem: 47 75<-6.12943 264.928 350 383.288> 285 68<247.515 292.999>
LayerCount: 2
Fore
SplineSet
121 350 m 1x70
 145 370 178 383 216 383 c 0
 270 383 331 345 351 293 c 0
 353 289 353 285 353 281 c 0
 353 267 344 252 330 247 c 0
 326 245 322 245 318 245 c 0
 304 245 290 254 285 268 c 0
 276 291 241 313 216 313 c 0xb0
 194 313 146 313 129 218 c 0
 123 186 122 148 122 112 c 0
 122 92 122 72 122 53 c 0
 122 42 122 32 122 23 c 0
 121 4 105 -11 86 -11 c 0
 67 -11 52 5 52 24 c 0
 52 74 47 160 47 245 c 0
 47 283 48 322 51 356 c 0
 52 375 69 388 88 388 c 0
 106.399414062 388 121.046875 370.182617188 121.046875 351.801757812 c 0
 121 350 l 1x70
EndSplineSet
Validated: 1
EndChar

StartChar: s
Encoding: 83 115 83
Width: 400
VWidth: 774
Flags: W
HStem: -15 70<131.594 256.035> 325 70<140.27 257.827>
VStem: 55 70<263.503 307.5> 283 69<81.6765 161.743>
LayerCount: 2
Fore
SplineSet
203 395 m 0
 247 394 296 374 331 328 c 0
 336 322 338 314 338 307 c 0
 338 297 334 286 325 279 c 0
 319 274 311 272 304 272 c 0
 294 272 283 276 276 285 c 0
 253 316 227 325 202 325 c 0
 201 325 201 325 200 325 c 0
 156 325 125 294 125 282 c 0
 125 270 150 257 197 252 c 0
 267 246 316 220 339 179 c 0
 348 163 352 145 352 127 c 0
 352 101 343 76 329 54 c 0
 305 18 264 -9 215 -14 c 0
 210 -15 204 -15 199 -15 c 0
 154 -15 105 4 59 46 c 0
 52 53 48 63 48 72 c 0
 48 80 51 88 57 95 c 0
 64 102 73 106 83 106 c 0
 92 106 100 103 107 97 c 0
 141 65 170 55 196 55 c 0
 200 55 204 56 207 56 c 0
 235 59 258 74 271 93 c 0
 279 105 283 115 283 125 c 0
 283 132 281 138 278 144 c 0
 270 159 247 178 191 183 c 0
 74 194 55 246 55 279 c 0
 55 293 58 304 59 307 c 0
 75 352 131 395 201 395 c 0
 202 395 202 395 203 395 c 0
EndSplineSet
Validated: 1
EndChar

StartChar: t
Encoding: 84 116 84
Width: 400
VWidth: 774
Flags: W
HStem: -19 70<156.351 227.509> 284 70<148.5 296.531>
VStem: 64.5 72<66.6337 361.483> 89.5 70<52.3792 143.197 356.203 527.857> 265.5 70<86.1524 179.344>
LayerCount: 2
Fore
SplineSet
125.5 531 m 1xd8
 144.5 531 159.5 514 159.5 495 c 0xd8
 158.5 448 153.5 401 148.5 354 c 1
 174.5 354 201.5 354 226.5 354 c 0
 239.5 354 251.5 354 263.5 354 c 0
 282.5 354 299.5 339 299.5 320 c 0
 299.5 301 284.5 284 265.5 284 c 0
 252.5 284 238.5 284 224.5 284 c 0
 196.5 284 168.5 284 141.5 284 c 1
 138.5 254 136.5 224 136.5 196 c 0
 136.5 154 141.5 115 153.5 78 c 0
 160.5 57 166.5 54 176.5 52 c 0
 178.5 52 180.5 51 182.5 51 c 0
 214.5 51 265.5 94 265.5 138 c 0
 265.5 144 264.5 150 262.5 156 c 0
 260.5 160 260.5 164 260.5 168 c 0
 260.5 182 269.5 195 283.5 200 c 0
 287.5 202 292.5 202 296.5 202 c 0
 310.5 202 323.5 194 328.5 180 c 0
 333.5 166 335.5 152 335.5 138 c 0
 335.5 57 256.5 -19 182.5 -19 c 0
 175.5 -19 169.5 -18 162.5 -17 c 0
 129.5 -10 99.5 17 86.5 56 c 0
 70.5 104 64.5 154 64.5 204 c 0xe8
 64.5 306 88.5 407 89.5 496 c 0
 89.5 515 106.5 531 125.5 531 c 1xd8
EndSplineSet
Validated: 1
EndChar

StartChar: u
Encoding: 85 117 85
Width: 400
VWidth: 774
Flags: W
HStem: -14 70<161.831 256.573> 365 20G<315 334>
VStem: 40.5 71<121.161 377.717> 289.5 70<99.8966 382.203>
LayerCount: 2
Fore
SplineSet
324.5 385 m 0
 343.5 385 359.5 370 359.5 351 c 0
 359.5 330 359.5 309 359.5 289 c 0
 359.5 225 357.5 166 345.5 114 c 0
 321.5 10 260.5 -14 210.5 -14 c 0
 113.5 -14 74.5 67 59.5 119 c 0
 45.5 165 40.5 217 40.5 269 c 0
 40.5 297 42.5 324 44.5 351 c 0
 46.5 369 61.5 382 78.5 382 c 0
 79.5 382 81.5 382 82.5 382 c 0
 100.5 380 114.5 365 114.5 347 c 0
 114.5 346 111.5 311 111.5 272 c 0
 111.5 224 115.5 176 126.5 139 c 0
 139.5 98 161.5 56 208.5 56 c 0
 209.5 56 209.5 56 210.5 56 c 0
 256.5 57 267.5 90 277.5 129 c 0
 287.5 173 289.5 236 289.5 305 c 0
 289.5 320 289.5 335 289.5 350 c 0
 289.5 369 305.5 385 324.5 385 c 0
EndSplineSet
Validated: 1
EndChar

StartChar: v
Encoding: 86 118 86
Width: 400
VWidth: 774
Flags: W
HStem: 367 20G<68 77>
VStem: 294 69<294.579 379.658>
LayerCount: 2
Fore
SplineSet
49 378 m 0
 55 384 64 387 72 387 c 0
 82 387 92 383 99 375 c 0
 161 300 157 188 197 103 c 1
 239 196 269 278 294 358 c 0
 299 373 313 383 328 383 c 0
 331 383 335 382 338 381 c 0
 353 376 363 363 363 348 c 0
 363 345 362 341 361 338 c 0
 329 236 288 128 227 2 c 0
 221 -11 208 -18 195 -18 c 0
 184 -18 173 -12 166 -1 c 0
 113 86 78 293 46 329 c 0
 40 335 37 343 37 351 c 0
 37 361 41 371 49 378 c 0
EndSplineSet
Validated: 1
EndChar

StartChar: w
Encoding: 87 119 87
Width: 400
VWidth: 774
Flags: W
HStem: 367 20G<56 65>
VStem: 309 70<207.24 374.398>
LayerCount: 2
Fore
SplineSet
50 386 m 0
 52 386 55 387 57 387 c 0
 73 387 86 375 90 358 c 0
 102 296 105 210 124 123 c 1
 139 173 154 228 159 259 c 0
 162 275 175 287 191 288 c 0
 192 288 192 288 193 288 c 0
 208 288 222 278 227 264 c 0
 240 223 253 169 269 120 c 1
 286 193 303 284 309 346 c 0
 311 364 326 377 344 377 c 0
 345 377 347 377 348 377 c 0
 366 375 379 360 379 342 c 0
 379 318 349 116 310 8 c 0
 304 -7 291 -15 277 -15 c 0
 266 -15 256 -10 249 0 c 0
 225 34 208 75 196 114 c 1
 183 71 168 29 155 1 c 0
 148 -12 135 -19 122 -19 c 0
 111 -19 100 -14 94 -4 c 0
 33 94 44 235 22 346 c 0
 22 348 21 351 21 353 c 0
 21 369 33 382 50 386 c 0
EndSplineSet
Validated: 1
EndChar

StartChar: x
Encoding: 88 120 88
Width: 400
VWidth: 774
Flags: W
HStem: 368 20G<84.5 94>
VStem: 51 68<321.384 384.993>
LayerCount: 2
Fore
SplineSet
73 385 m 0
 77 387 82 388 87 388 c 0
 101 388 114 380 119 366 c 0
 139 316 163 282 193 248 c 1
 226 284 254 319 273 361 c 0
 279 374 292 381 305 381 c 0
 310 381 315 380 320 378 c 0
 333 372 340 360 340 347 c 0
 340 342 339 337 337 332 c 0
 312 277 277 236 241 197 c 1
 275 160 314 117 352 54 c 0
 355 48 357 42 357 36 c 0
 357 24 351 13 341 6 c 0
 336 3 329 1 323 1 c 0
 311 1 299 7 292 18 c 0
 258 73 226 111 194 145 c 1
 162 108 132 69 110 17 c 0
 104 4 91 -4 78 -4 c 0
 73 -4 69 -3 64 -1 c 0
 51 5 43 18 43 31 c 0
 43 36 44 40 46 45 c 0
 73 109 110 155 146 196 c 1
 111 235 78 278 54 340 c 0
 52 344 51 349 51 353 c 0
 51 367 59 380 73 385 c 0
EndSplineSet
Validated: 1
EndChar

StartChar: y
Encoding: 89 121 89
Width: 400
VWidth: 774
Flags: W
HStem: -242 70<135.247 238.098> 16 70<147.773 227.403> 373 20G<78.5 101.5 305 326.5>
VStem: 43 70<128.109 374.246> 53 68<115.028 249.499 252.92 255.547 258.593 390.753> 283 79<-81.8075 73.1562 173.449 349.988 350 376.759>
LayerCount: 2
Fore
SplineSet
93 393 m 0xec
 110 390 121 375 121 358 c 0
 121 356 121 354 121 352 c 0xec
 116 324 113 291 113 257 c 0xf4
 113 226 115 195 121 169 c 0xec
 130 130 146 86 193 86 c 0
 226 86 251 145 257 161 c 0
 274 204 283 261 283 315 c 0
 283 333 282 350 282 350 c 0
 282 368 296 383 314 385 c 0
 315 385 317 385 318 385 c 0
 335 385 350 372 352 354 c 0
 357 306 362 232 362 153 c 0
 362 107 360 59 356 13 c 0
 342 -131 300 -242 204 -242 c 0
 141 -242 83 -211 45 -160 c 0
 40 -153 38 -146 38 -139 c 0
 38 -129 43 -118 52 -111 c 0
 59 -106 66 -104 73 -104 c 0
 83 -104 94 -109 101 -118 c 0
 127 -153 164 -172 204 -172 c 0
 262 -172 281 -35 286 20 c 0
 288 38 289 56 290 74 c 1
 273 50 240 16 193 16 c 0
 96 16 63 106 52 154 c 0
 45 185 43 219 43 251 c 0xf4
 43 292 47 331 53 365 c 0
 56 382 70 393 87 393 c 0
 89 393 91 393 93 393 c 0xec
EndSplineSet
Validated: 1
EndChar

StartChar: z
Encoding: 90 122 90
Width: 400
VWidth: 774
Flags: W
HStem: -7 70<157 358.898> 324 70<54.1431 261.018>
VStem: 37 326<-6.62354 54.6938>
LayerCount: 2
Fore
SplineSet
88 394 m 0
 201 389 276 389 328 378 c 0
 345 374 356 360 356 344 c 0
 356 339 355 333 352 328 c 0
 322 269 241 159 157 63 c 1
 163 63 168 63 173 63 c 0
 221 63 267 60 312 60 c 0
 317 60 322 60 327 60 c 0
 346 60 363 45 363 26 c 0
 363 7 348 -10 329 -10 c 0
 322 -10 315 -10 308 -10 c 0
 258 -10 212 -7 165 -7 c 0
 137 -7 108 -8 77 -12 c 0
 75 -12 74 -12 72 -12 c 0
 51 -12 37 5 37 23 c 0
 37 31 40 40 47 47 c 0
 125 128 216 244 263 315 c 1
 221 318 161 321 85 324 c 0
 67 325 51 340 51 358 c 0
 51 377 67 394 86 394 c 0
 87 394 87 394 88 394 c 0
EndSplineSet
Validated: 1
EndChar

StartChar: braceleft
Encoding: 91 123 91
Width: 400
VWidth: 774
Flags: W
HStem: -30 70<215.151 300.439> 582 70<226.234 328.961>
VStem: 135 71<46.6322 226.13> 149 71<41.125 109.734 111.984 112.109 112.82 267.723 430.563 562.478>
LayerCount: 2
Fore
SplineSet
261 652 m 0xd0
 276 652 292 650 308 646 c 0
 324 642 334 628 334 612 c 0
 334 609 334 606 333 603 c 0
 329 587 315 577 300 577 c 0
 297 577 294 577 291 578 c 0
 280 581 272 582 264 582 c 0
 256 582 249 581 244 579 c 0
 235 576 231 571 226 563 c 0
 220 552 217 532 217 511 c 0
 217 501 217 490 219 480 c 0
 222 462 224 445 224 428 c 0
 224 401 219 375 208 352 c 0
 202 340 194 329 184 320 c 1
 194 311 201 301 207 289 c 0
 216 271 220 250 220 228 c 0xd0
 220 206 216 180 210 154 c 0
 207 142 206 127 206 113 c 0
 206 94 209 75 215 62 c 0
 220 51 226 46 235 43 c 0
 239 42 244 40 251 40 c 0
 259 40 270 42 284 47 c 0
 288 48 291 49 295 49 c 0
 310 49 324 39 329 25 c 0
 330 21 331 18 331 14 c 0
 331 -1 321 -15 307 -20 c 0
 287 -27 269 -30 252 -30 c 0
 238 -30 224 -28 211 -23 c 0
 183 -13 163 8 152 31 c 0
 140 57 135 84 135 111 c 0xe0
 135 132 138 152 142 170 c 0
 147 193 149 211 149 226 c 0
 149 241 147 252 144 259 c 0
 138 273 127 281 95 286 c 0
 79 289 66 302 66 319 c 0
 66 336 77 353 97 355 c 0
 126 358 137 366 145 383 c 0
 150 394 153 410 153 430 c 0
 153 442 152 455 150 469 c 0
 148 484 146 501 146 517 c 0
 146 544 151 571 165 597 c 0
 191 645 237 652 261 652 c 0xd0
EndSplineSet
Validated: 1
EndChar

StartChar: bar
Encoding: 92 124 92
Width: 400
VWidth: 774
Flags: W
VStem: 158 71<-13.579 331.572 460.577 657.77> 171 71<219.976 639.236>
LayerCount: 2
Fore
SplineSet
189 661 m 0x40
 191 661 192 661 194 661 c 0
 211 661 226 649 229 632 c 0x80
 239 571 242 510 242 450 c 0x40
 242 329 229 210 229 94 c 0
 229 50 231 18 231 17 c 0
 231 -1 216 -17 198 -18 c 0
 197 -18 197 -18 196 -18 c 0
 178 -18 162 -3 161 15 c 0
 159 44 158 72 158 101 c 0x80
 158 222 171 342 171 458 c 0
 171 513 169 567 160 621 c 0
 160 623 160 624 160 626 c 0
 160 643 172 658 189 661 c 0x40
EndSplineSet
Validated: 1
EndChar

StartChar: braceright
Encoding: 93 125 93
Width: 400
VWidth: 774
Flags: W
HStem: -20 79<81.1255 149.626> 600 69<93.0625 173.35>
VStem: 177 70<402.841 538.461> 183 69<125.422 288.139 456.751 588.618> 194 71<66.9275 210.969>
LayerCount: 2
Fore
SplineSet
145 669 m 0xe0
 176 669 204 657 223 636 c 0
 245 611 255 578 255 541 c 0
 255 527 253 512 251 497 c 0
 248 480 247 466 247 454 c 0xe0
 247 432 251 418 257 409 c 0
 266 395 280 387 308 381 c 0
 324 378 336 362 336 346 c 0
 336 331 325 318 311 313 c 0
 279 303 252 274 252 219 c 0xd0
 252 202 254 183 260 161 c 0
 263 149 265 136 265 124 c 0
 265 87 251 51 228 23 c 0
 213 5 192 -9 168 -16 c 0
 160 -18 151 -20 142 -20 c 0
 125 -20 107 -15 91 -6 c 0
 79 0 73 12 73 24 c 0
 73 30 74 36 77 41 c 0
 83 53 95 59 108 59 c 0
 114 59 120 58 125 55 c 0
 136 49 142 49 150 51 c 0
 158 53 166 59 174 68 c 0
 186 83 194 105 194 126 c 0xc8
 194 132 193 138 192 144 c 0
 186 168 183 190 183 212 c 0xd0
 183 264 200 309 228 340 c 1
 216 349 206 359 198 372 c 0
 184 395 177 423 177 456 c 0
 177 472 179 490 182 509 c 0
 184 519 184 528 184 537 c 0
 184 563 178 581 170 589 c 0
 164 596 157 600 145 600 c 0
 137 600 125 598 111 593 c 0
 107 591 102 591 98 591 c 0
 84 591 71 599 66 613 c 0
 64 617 64 621 64 625 c 0
 64 639 73 653 87 658 c 0
 107 665 126 669 145 669 c 0xe0
EndSplineSet
Validated: 1
EndChar

StartChar: asciitilde
Encoding: 94 126 94
Width: 400
VWidth: 774
Flags: W
HStem: 236 144<194.844 206.055 274.37 303.574>
VStem: 61 70<253.577 291.906> 269 70<307.357 372.05>
LayerCount: 2
Fore
SplineSet
136 379 m 0
 141 380 145 380 150 380 c 0
 180 380 214 362 232 323 c 0
 241 305 248 305 252 306 c 0
 256 307 267 312 269 342 c 0
 270 360 286 375 304 375 c 0
 305 375 305 375 306 375 c 0
 324 374 339 357 339 339 c 0
 339 315 322 250 268 238 c 0
 262 237 257 236 251 236 c 0
 217 236 184 259 168 293 c 0
 159 313 153 312 150 311 c 0
 147 310 136 304 131 278 c 0
 128 261 113 250 97 250 c 0
 95 250 92 250 90 251 c 0
 73 255 61 269 61 285 c 0
 61 287 62 290 62 292 c 0
 71 337 98 371 136 379 c 0
EndSplineSet
Validated: 1
EndChar
